<?xml version="1.0" encoding="utf-8"?>
<!-- Generator: Adobe Illustrator 21.0.0, SVG Export Plug-In . SVG Version: 6.00 Build 0)  -->
<svg version="1.1" id="Слой_1" xmlns="http://www.w3.org/2000/svg" xmlns:xlink="http://www.w3.org/1999/xlink" x="0px" y="0px"
	 viewBox="0 0 180 110" style="enable-background:new 0 0 180 110;" xml:space="preserve">
<style type="text/css">
	.st0{fill:#272425;}
	.st1{fill:#9B7B53;}
</style>
<path class="st0" d="M171.4,57h-12.5c-0.4,0-0.8-0.3-0.8-0.8s0.3-0.8,0.8-0.8h12.5c0.4,0,0.8,0.3,0.8,0.8S171.8,57,171.4,57z"/>
<path class="st0" d="M26.8,83.3H14.3c-0.4,0-0.8-0.3-0.8-0.8c0-0.4,0.3-0.8,0.8-0.8h12.5c0.4,0,0.8,0.3,0.8,0.8
	C27.6,83,27.2,83.3,26.8,83.3z"/>
<path class="st0" d="M19.2,89.1H6.7c-0.4,0-0.8-0.3-0.8-0.8c0-0.4,0.3-0.8,0.8-0.8h12.5c0.4,0,0.8,0.3,0.8,0.8
	C19.9,88.8,19.6,89.1,19.2,89.1z"/>
<g>
	<g>
		<path class="st0" d="M168.9,78.9c-0.2,0-0.4-0.1-0.5-0.2l-2.8-2.8c-0.3-0.3-0.3-0.8,0-1.1c0.3-0.3,0.8-0.3,1.1,0l2.8,2.8
			c0.3,0.3,0.3,0.8,0,1.1C169.3,78.8,169.1,78.9,168.9,78.9z"/>
		<path class="st0" d="M163.7,73.6c-0.2,0-0.4-0.1-0.5-0.2l-2.8-2.8c-0.3-0.3-0.3-0.8,0-1.1c0.3-0.3,0.8-0.3,1.1,0l2.8,2.8
			c0.3,0.3,0.3,0.8,0,1.1C164.1,73.6,163.9,73.6,163.7,73.6z"/>
	</g>
	<g>
		<path class="st0" d="M160.9,78.9c-0.2,0-0.4-0.1-0.5-0.2c-0.3-0.3-0.3-0.8,0-1.1l2.8-2.8c0.3-0.3,0.8-0.3,1.1,0
			c0.3,0.3,0.3,0.8,0,1.1l-2.8,2.8C161.3,78.8,161.1,78.9,160.9,78.9z"/>
		<path class="st0" d="M166.1,73.6c-0.2,0-0.4-0.1-0.5-0.2c-0.3-0.3-0.3-0.8,0-1.1l2.8-2.8c0.3-0.3,0.8-0.3,1.1,0
			c0.3,0.3,0.3,0.8,0,1.1l-2.8,2.8C166.5,73.6,166.3,73.6,166.1,73.6z"/>
	</g>
</g>
<g>
	<g>
		<path class="st0" d="M17.9,74.3c-0.2,0-0.4-0.1-0.5-0.2l-2.8-2.8c-0.3-0.3-0.3-0.8,0-1.1c0.3-0.3,0.8-0.3,1.1,0l2.8,2.8
			c0.3,0.3,0.3,0.8,0,1.1C18.3,74.2,18.1,74.3,17.9,74.3z"/>
		<path class="st0" d="M12.7,69.1c-0.2,0-0.4-0.1-0.5-0.2l-2.8-2.8C9,65.8,9,65.3,9.3,65c0.3-0.3,0.8-0.3,1.1,0l2.8,2.8
			c0.3,0.3,0.3,0.8,0,1.1C13.1,69,12.9,69.1,12.7,69.1z"/>
	</g>
	<g>
		<path class="st0" d="M9.9,74.3c-0.2,0-0.4-0.1-0.5-0.2C9,73.8,9,73.3,9.3,73l2.8-2.8c0.3-0.3,0.8-0.3,1.1,0c0.3,0.3,0.3,0.8,0,1.1
			l-2.8,2.8C10.3,74.2,10.1,74.3,9.9,74.3z"/>
		<path class="st0" d="M15.1,69.1c-0.2,0-0.4-0.1-0.5-0.2c-0.3-0.3-0.3-0.8,0-1.1l2.8-2.8c0.3-0.3,0.8-0.3,1.1,0
			c0.3,0.3,0.3,0.8,0,1.1l-2.8,2.8C15.5,69,15.3,69.1,15.1,69.1z"/>
	</g>
</g>
<g>
	<g>
		<path class="st0" d="M72.4,21.8c-0.2,0-0.4-0.1-0.5-0.2l-2.8-2.8c-0.3-0.3-0.3-0.8,0-1.1c0.3-0.3,0.8-0.3,1.1,0l2.8,2.8
			c0.3,0.3,0.3,0.8,0,1.1C72.8,21.7,72.6,21.8,72.4,21.8z"/>
		<path class="st0" d="M67.2,16.6c-0.2,0-0.4-0.1-0.5-0.2l-2.8-2.8c-0.3-0.3-0.3-0.8,0-1.1c0.3-0.3,0.8-0.3,1.1,0l2.8,2.8
			c0.3,0.3,0.3,0.8,0,1.1C67.6,16.5,67.4,16.6,67.2,16.6z"/>
	</g>
	<g>
		<path class="st0" d="M64.5,21.8c-0.2,0-0.4-0.1-0.5-0.2c-0.3-0.3-0.3-0.8,0-1.1l2.8-2.8c0.3-0.3,0.8-0.3,1.1,0
			c0.3,0.3,0.3,0.8,0,1.1L65,21.6C64.9,21.7,64.7,21.8,64.5,21.8z"/>
		<path class="st0" d="M69.7,16.6c-0.2,0-0.4-0.1-0.5-0.2c-0.3-0.3-0.3-0.8,0-1.1l2.8-2.8c0.3-0.3,0.8-0.3,1.1,0
			c0.3,0.3,0.3,0.8,0,1.1l-2.8,2.8C70.1,16.5,69.9,16.6,69.7,16.6z"/>
	</g>
</g>
<path class="st1" d="M136.1,18.7L126.4,9c-0.3-0.3-0.8-0.3-1.1,0L66.2,68.1c-0.1,0.1-0.2,0.3-0.2,0.5c0,0.2,0.1,0.4,0.2,0.5l9.7,9.7
	c0.2,0.2,0.3,0.2,0.5,0.2c0.2,0,0.4-0.1,0.5-0.2l20.1-20.1c0,0,0,0,0,0c0,0,0,0,0,0l26.5-26.5l0,0v0l6.6-6.6l0,0l0,0l5.9-5.9
	C136.4,19.5,136.4,19,136.1,18.7z M129.7,24.1l-3.6-3.6c-0.3-0.3-0.8-0.3-1.1,0c-0.3,0.3-0.3,0.8,0,1.1l3.6,3.6l-5.5,5.5l-3.6-3.6
	c-0.3-0.3-0.8-0.3-1.1,0c-0.3,0.3-0.3,0.8,0,1.1l3.6,3.6l-5.5,5.5l-3.6-3.6c-0.3-0.3-0.8-0.3-1.1,0c-0.3,0.3-0.3,0.8,0,1.1l3.6,3.6
	l-5.5,5.5l-3.6-3.6c-0.3-0.3-0.8-0.3-1.1,0c-0.3,0.3-0.3,0.8,0,1.1l3.6,3.6l-5.5,5.5L99.5,47c-0.3-0.3-0.8-0.3-1.1,0
	c-0.3,0.3-0.3,0.8,0,1.1l3.6,3.6l-5.5,5.5l-3.6-3.6c-0.3-0.3-0.8-0.3-1.1,0c-0.3,0.3-0.3,0.8,0,1.1l3.6,3.6l-5.5,5.5l-3.6-3.6
	c-0.3-0.3-0.8-0.3-1.1,0c-0.3,0.3-0.3,0.8,0,1.1l3.6,3.6l-5.5,5.5l-3.6-3.6c-0.3-0.3-0.8-0.3-1.1,0c-0.3,0.3-0.3,0.8,0,1.1l3.6,3.6
	l-5.7,5.7l-8.6-8.6l58-58l8.6,8.6L129.7,24.1z"/>
<path class="st1" d="M132.6,42.1l-0.3-4.7c0-0.4-0.3-0.7-0.7-0.7l-4.7-0.3c-0.2,0-0.4,0.1-0.6,0.2l-4.8,4.8c0,0,0,0,0,0c0,0,0,0,0,0
	L93.2,69.7c0,0,0,0,0,0s0,0,0,0l-2,2C91.1,71.8,91,72,91,72.2l-0.6,5.6c0,0.2,0.1,0.5,0.2,0.6c0.1,0.1,0.3,0.2,0.5,0.2
	c0,0,0.1,0,0.1,0l5.6-0.6c0.2,0,0.3-0.1,0.5-0.2l2-2c0,0,0,0,0,0c0,0,0,0,0,0l27.5-27.5l0.2,0.2c0.4,0.4,0.5,0.6,0.5,0.8
	c0,0.2-0.2,0.5-0.8,1.2l-9.6,9.6c-0.7,0.7-1.1,1.5-1.1,2.2c0,0.9,0.6,1.6,1.1,2c0.2,0.2,0.3,0.2,0.5,0.2c0.2,0,0.4-0.1,0.5-0.2
	c0.3-0.3,0.3-0.8,0-1.1c0,0-0.1-0.1-0.1-0.1c-0.3-0.3-0.6-0.6-0.6-0.9c0-0.3,0.2-0.6,0.7-1.1l9.6-9.6c0.9-0.8,1.2-1.5,1.3-2.2
	c0-0.8-0.5-1.5-1-1.9l-0.2-0.2l1.9-1.9c0,0,0,0,0,0c0,0,0,0,0,0l2.5-2.5C132.5,42.6,132.6,42.4,132.6,42.1z M96.4,76.5l-4.3,0.5
	l0.5-4.3l1.2-1.2l3.9,3.9L96.4,76.5z M98.7,74.1l-3.9-3.9L122,43.1l3.8,4L98.7,74.1z M123.1,42l1.2-1.2l3.9,3.9l-1.3,1.3L123.1,42z
	 M129.3,43.6l-3.9-3.9l1.7-1.7l3.7,0.2l0.2,3.7L129.3,43.6z"/>
<path class="st1" d="M105.7,16.5c-0.2-0.2-0.4-0.3-0.7-0.2l-5.9,1.1c0,0-0.1,0-0.1,0c0,0-0.1,0-0.1,0c-0.1,0-0.2,0.1-0.2,0.2
	L67.1,49.2c0,0,0,0,0,0s0,0,0,0l-2.2,2.2c0,0,0,0,0,0s0,0,0,0l-2.4,2.4c-0.2,0.2-0.3,0.4-0.2,0.7l0.7,4.1c0.1,0.3,0.3,0.6,0.6,0.6
	l4.1,0.7c0,0,0.1,0,0.1,0c0.2,0,0.4-0.1,0.5-0.2l36.2-36.2c0.1-0.1,0.2-0.3,0.2-0.4l1.1-5.9C106,16.9,105.9,16.7,105.7,16.5z
	 M103.6,21.3l-2.7-2.7l3.3-0.6L103.6,21.3z M72.4,53.4L71,52l29.7-29.7c0.3-0.3,0.3-0.8,0-1.1c-0.3-0.3-0.8-0.3-1.1,0L69.9,50.9
	l-1.1-1.1l30.5-30.5l3.7,3.7L72.4,53.4z M70.2,55.6L66.6,52l1.1-1.1l3.7,3.7L70.2,55.6z M67.6,58.3l-3.1-0.5l-0.5-3.1l1.5-1.5
	l3.7,3.7L67.6,58.3z"/>
<g>
	<path class="st0" d="M152.3,39.3h-14.8c-0.4,0-0.8,0.3-0.8,0.8c0,0.4,0.3,0.8,0.8,0.8h14v9.6h-17.2c-0.4,0-0.8,0.3-0.8,0.8
		c0,0.4,0.3,0.8,0.8,0.8h13.1v3.1h-19.1c-0.4,0-0.8,0.3-0.8,0.8c0,0.4,0.3,0.8,0.8,0.8h7.5v44.9c0,0.4,0.3,0.8,0.8,0.8h6
		c0.4,0,0.8-0.3,0.8-0.8V56.7h4.8c0.4,0,0.8-0.3,0.8-0.8v-3.9h3.3c0.4,0,0.8-0.3,0.8-0.8V40.1C153.1,39.7,152.7,39.3,152.3,39.3z
		 M141.9,100.9h-4.5V56.7h4.5V100.9z"/>
	<path class="st0" d="M66.9,39.3H23.2c-0.4,0-0.8,0.3-0.8,0.8v11.2c0,0.4,0.3,0.8,0.8,0.8h6.3v3.9c0,0.4,0.3,0.8,0.8,0.8h4.3v44.9
		c0,0.4,0.3,0.8,0.8,0.8h6c0.4,0,0.8-0.3,0.8-0.8V56.7h17.6c0.4,0,0.8-0.3,0.8-0.8c0-0.4-0.3-0.8-0.8-0.8H31.1v-3.1h28.2
		c0.4,0,0.8-0.3,0.8-0.8c0-0.4-0.3-0.8-0.8-0.8H24v-9.6h42.9c0.4,0,0.8-0.3,0.8-0.8C67.7,39.7,67.3,39.3,66.9,39.3z M40.6,100.9
		h-4.5V56.7h4.5V100.9z"/>
</g>
<path class="st0" d="M48.5,99.8c-0.4,0-0.8-0.3-0.8-0.8V66c0-0.4,0.3-0.8,0.8-0.8h13.4c0.4,0,0.8,0.3,0.8,0.8c0,0.4-0.3,0.8-0.8,0.8
	H49.3v32.2C49.3,99.5,48.9,99.8,48.5,99.8z"/>
<g>
	<path class="st0" d="M129.8,65.3h-16c-0.4,0-0.8,0.3-0.8,0.8c0,0.4,0.3,0.8,0.8,0.8H129v6.5h-22.4c-0.4,0-0.8,0.3-0.8,0.8
		c0,0.4,0.3,0.8,0.8,0.8H129v2.4l-39,6.3L48.6,78c-0.4-0.1-0.8,0.2-0.9,0.7c-0.1,0.4,0.2,0.8,0.7,0.9l36.3,4.8l-36.3,5.9
		c-0.4,0.1-0.7,0.5-0.6,0.9c0.1,0.4,0.4,0.7,0.8,0.7c0,0,0.1,0,0.1,0L90,85.1l39,5.2c0,0,0,0,0,0v8.8c0,0.4,0.3,0.8,0.8,0.8
		s0.8-0.3,0.8-0.8V66C130.6,65.6,130.2,65.3,129.8,65.3z M95.4,84.2l33.7-5.4v9.9L95.4,84.2z"/>
	<path class="st0" d="M48.5,74.9h16.2c0.4,0,0.8-0.3,0.8-0.8c0-0.4-0.3-0.8-0.8-0.8H48.5c-0.4,0-0.8,0.3-0.8,0.8
		C47.7,74.5,48,74.9,48.5,74.9z"/>
</g>
</svg>
