<?xml version="1.0" encoding="utf-8"?>
<!-- Generator: Adobe Illustrator 21.0.0, SVG Export Plug-In . SVG Version: 6.00 Build 0)  -->
<svg version="1.1" id="Слой_1" xmlns="http://www.w3.org/2000/svg" xmlns:xlink="http://www.w3.org/1999/xlink" x="0px" y="0px"
	 viewBox="0 0 180 110" style="enable-background:new 0 0 180 110;" xml:space="preserve">
<style type="text/css">
	.st0{fill:#272425;}
	.st1{fill:#9B7B53;}
</style>
<g>
	<path class="st0" d="M137,35.1L129,20.7l-9.5-5.8l-6.4-1l-4.3,2.4l14.7,26.4L137,35.1z M113.4,15.5l5.4,0.8l9,5.5l7.1,12.6l-10.7,6
		L111,16.9L113.4,15.5z"/>
	
		<rect x="46.3" y="49.2" transform="matrix(0.7757 -0.6311 0.6311 0.7757 -14.3984 59.5067)" class="st0" width="60.5" height="1.6"/>
	
		<rect x="112.4" y="18.1" transform="matrix(0.8731 -0.4875 0.4875 0.8731 -0.7604 59.0983)" class="st0" width="1.6" height="25.9"/>
	
		<rect x="135.8" y="21.9" transform="matrix(0.8731 -0.4875 0.4875 0.8731 3.2866 70.2303)" class="st0" width="1.6" height="13.9"/>
	<g>
		<rect x="114.5" y="55" transform="matrix(0.9912 -0.1327 0.1327 0.9912 -6.3618 16.226)" class="st0" width="8.2" height="1.6"/>
		<rect x="123.2" y="58.6" transform="matrix(0.4741 -0.8805 0.8805 0.4741 10.0803 142.091)" class="st0" width="1.6" height="8"/>
		
			<rect x="122.9" y="66.3" transform="matrix(0.7927 -0.6096 0.6096 0.7927 -17.4574 90.0799)" class="st0" width="1.6" height="8.9"/>
	</g>
	<g>
		
			<rect x="57.3" y="84.6" transform="matrix(0.7946 -0.6072 0.6072 0.7946 -39.2339 54.7837)" class="st0" width="8.2" height="1.6"/>
		
			<rect x="58.3" y="93.2" transform="matrix(0.2873 -0.9578 0.9578 0.2873 -45.6032 126.6371)" class="st0" width="8" height="1.6"/>
		
			<rect x="67.4" y="95.1" transform="matrix(0.9916 -0.1295 0.1295 0.9916 -12.3096 9.6711)" class="st0" width="1.6" height="8.9"/>
	</g>
	<g>
		<polygon class="st0" points="95.3,49.7 95.8,49.8 95.3,49.5 		"/>
		<path class="st0" d="M135.8,18.7L117.9,8l-8.3,1.4l-10.6,6.7l2.8,5L41.9,70.5l-0.5,0.4l4.6,8.3l0,0.1l0.1,0.1l0.3,0.5l0.3-0.2
			l7.2,3.9l0.4-7.6l6.7,3.7l0.4-7.6l6.7,3.7l0.4-7.6l1.2,0.7l0.2-1.7l-2.9-1.6L66.5,73l-6.7-3.7L59.4,77l-6.7-3.7l-0.4,7.6l-5.1-2.8
			l-3.8-6.8l59.1-48.7l12.1,21.7l-5.1-2.8l-0.4,7.6l-6.7-3.7l-0.3,6.3l1.6,0.7l0.2-4.3l6.7,3.7l0.4-7.7l5.1,2.8l2.6,4.6l27-15.1
			L135.8,18.7z M117.4,45.9L117.4,45.9l-0.1-0.1l-16.2-29.1L110,11l7.5-1.3l17.1,10.2l8.9,16l-24.2,13.5L117.4,45.9z"/>
	</g>
	<path class="st1" d="M92.5,97.3c-13.4,0-24.2-10.9-24.2-24.2s10.9-24.2,24.2-24.2c13.4,0,24.2,10.9,24.2,24.2S105.9,97.3,92.5,97.3
		z M92.5,50.5c-12.5,0-22.6,10.1-22.6,22.6s10.1,22.6,22.6,22.6c12.5,0,22.6-10.1,22.6-22.6S105,50.5,92.5,50.5z"/>
	<path class="st1" d="M92.5,93.4c-11.2,0-20.4-9.1-20.4-20.4c0-11.2,9.1-20.4,20.4-20.4c5,0,9.8,1.8,13.5,5.1
		c4.4,3.9,6.9,9.4,6.9,15.3C112.9,84.3,103.8,93.4,92.5,93.4z M92.5,54.3c-10.3,0-18.8,8.4-18.8,18.8s8.4,18.8,18.8,18.8
		c10.3,0,18.8-8.4,18.8-18.8c0-5.4-2.3-10.5-6.3-14C101.5,56,97.1,54.3,92.5,54.3z"/>
	<path class="st1" d="M92.5,89.3c-8.9,0-16.2-7.3-16.2-16.2s7.3-16.2,16.2-16.2c8.9,0,16.2,7.3,16.2,16.2S101.5,89.3,92.5,89.3z
		 M92.5,58.5c-8.1,0-14.6,6.6-14.6,14.6s6.6,14.6,14.6,14.6c8.1,0,14.6-6.6,14.6-14.6S100.6,58.5,92.5,58.5z"/>
	<path class="st1" d="M92.5,85.4c-6.8,0-12.4-5.5-12.4-12.4c0-6.8,5.5-12.4,12.4-12.4c6.8,0,12.4,5.6,12.4,12.4
		C104.9,79.9,99.4,85.4,92.5,85.4z M92.5,62.3c-5.9,0-10.8,4.8-10.8,10.8c0,5.9,4.8,10.8,10.8,10.8c5.9,0,10.8-4.8,10.8-10.8
		C103.3,67.1,98.5,62.3,92.5,62.3z"/>
	<path class="st1" d="M92.5,81c-4.4,0-7.9-3.6-7.9-7.9c0-4.4,3.6-7.9,7.9-7.9c4.4,0,7.9,3.6,7.9,7.9C100.5,77.4,96.9,81,92.5,81z
		 M92.5,66.8c-3.5,0-6.3,2.8-6.3,6.3c0,3.5,2.8,6.3,6.3,6.3c3.5,0,6.3-2.8,6.3-6.3C98.8,69.6,96,66.8,92.5,66.8z"/>
	<path class="st1" d="M92.5,77.3c-2.4,0-4.3-1.9-4.3-4.3c0-2.4,1.9-4.3,4.3-4.3c2.4,0,4.3,1.9,4.3,4.3
		C96.8,75.4,94.9,77.3,92.5,77.3z M92.5,70.4c-1.5,0-2.6,1.2-2.6,2.6c0,1.5,1.2,2.6,2.6,2.6c1.5,0,2.6-1.2,2.6-2.6
		C95.2,71.6,94,70.4,92.5,70.4z"/>
	<path class="st0" d="M64.2,29.8h-11c-0.5,0-1-0.4-1-1s0.4-1,1-1h11c0.5,0,1,0.4,1,1S64.8,29.8,64.2,29.8z"/>
	<path class="st0" d="M55.2,36.2h-11c-0.5,0-1-0.4-1-1s0.4-1,1-1h11c0.5,0,1,0.4,1,1S55.7,36.2,55.2,36.2z"/>
	<path class="st0" d="M163.2,68.6h-11c-0.5,0-1-0.4-1-1c0-0.5,0.4-1,1-1h11c0.5,0,1,0.4,1,1C164.2,68.2,163.7,68.6,163.2,68.6z"/>
	<g>
		<g>
			<path class="st0" d="M24.1,61.2c-0.5,0-1-0.4-1-1v-4.9c0-0.5,0.4-1,1-1c0.5,0,1,0.4,1,1v4.9C25.1,60.8,24.6,61.2,24.1,61.2z"/>
			<path class="st0" d="M24.1,52c-0.5,0-1-0.4-1-1v-4.9c0-0.5,0.4-1,1-1c0.5,0,1,0.4,1,1V51C25.1,51.6,24.6,52,24.1,52z"/>
		</g>
		<g>
			<path class="st0" d="M21.9,54.2H17c-0.5,0-1-0.4-1-1s0.4-1,1-1h4.9c0.5,0,1,0.4,1,1S22.5,54.2,21.9,54.2z"/>
			<path class="st0" d="M31.1,54.2h-4.9c-0.5,0-1-0.4-1-1s0.4-1,1-1h4.9c0.5,0,1,0.4,1,1S31.7,54.2,31.1,54.2z"/>
		</g>
	</g>
	<g>
		<g>
			<path class="st0" d="M145.8,93.4c-0.5,0-1-0.4-1-1v-4.9c0-0.5,0.4-1,1-1s1,0.4,1,1v4.9C146.7,93,146.3,93.4,145.8,93.4z"/>
			<path class="st0" d="M145.8,84.2c-0.5,0-1-0.4-1-1v-4.9c0-0.5,0.4-1,1-1s1,0.4,1,1v4.9C146.7,83.7,146.3,84.2,145.8,84.2z"/>
		</g>
		<g>
			<path class="st0" d="M143.6,86.3h-4.9c-0.5,0-1-0.4-1-1c0-0.5,0.4-1,1-1h4.9c0.5,0,1,0.4,1,1C144.6,85.9,144.1,86.3,143.6,86.3z"
				/>
			<path class="st0" d="M152.8,86.3h-4.9c-0.5,0-1-0.4-1-1c0-0.5,0.4-1,1-1h4.9c0.5,0,1,0.4,1,1C153.8,85.9,153.3,86.3,152.8,86.3z"
				/>
		</g>
	</g>
</g>
</svg>
