<?xml version="1.0" encoding="utf-8"?>
<!-- Generator: Adobe Illustrator 21.0.0, SVG Export Plug-In . SVG Version: 6.00 Build 0)  -->
<svg version="1.1" id="Слой_1" xmlns="http://www.w3.org/2000/svg" xmlns:xlink="http://www.w3.org/1999/xlink" x="0px" y="0px"
	 viewBox="0 0 111 139" style="enable-background:new 0 0 111 139;" xml:space="preserve">
<style type="text/css">
	.st0{fill:#9B7B53;}
	.st1{fill:#272425;}
</style>
<g>
	<path class="st0" d="M110.6,1.9c0-0.1,0-0.2,0-0.3c0,0,0-0.1,0-0.1c0-0.1-0.1-0.1-0.1-0.2c0,0,0,0,0-0.1c0,0,0,0,0,0c0,0,0,0,0-0.1
		c0-0.1-0.1-0.1-0.2-0.1c0,0,0,0,0,0c-0.1-0.1-0.2-0.1-0.3-0.1c0,0-0.1,0-0.1,0c-0.1,0-0.1,0-0.2,0c0,0-0.1,0-0.1,0c0,0,0,0-0.1,0
		L58.9,19.8c-0.4,0.1-0.6,0.5-0.5,0.9c0,0.4,0.3,0.7,0.7,0.8l18.6,3.5l0,8.7c0,0.3,0.2,0.6,0.5,0.8c0.1,0,0.2,0.1,0.3,0.1
		c0.2,0,0.4-0.1,0.6-0.2l8.4-7.5l9.7,1.8c0.1,0,0.1,0,0.2,0c0.3,0,0.6-0.2,0.8-0.5l12.4-26C110.6,2,110.6,2,110.6,1.9
		C110.6,1.9,110.6,1.9,110.6,1.9z M104.1,4.7L78.3,23.3l-15.9-3L104.1,4.7z M79.4,31.7l0-6.5l6.1,1.1L79.4,31.7z M96.9,26.8
		l-16.3-3.1l27-19.4L96.9,26.8z"/>
	<path class="st0" d="M72.5,35.6c-0.3-0.4-0.8-0.5-1.2-0.2L41,57.7c-0.4,0.3-0.5,0.8-0.2,1.2c0.2,0.2,0.4,0.3,0.7,0.3
		c0.2,0,0.4-0.1,0.5-0.2l30.4-22.3C72.7,36.5,72.8,36,72.5,35.6z"/>
	<path class="st0" d="M87.8,34.5l-6.8,5c-0.4,0.3-0.5,0.8-0.2,1.2c0.2,0.2,0.4,0.3,0.7,0.3c0.2,0,0.4-0.1,0.5-0.2l6.8-5
		c0.4-0.3,0.5-0.8,0.2-1.2C88.8,34.3,88.2,34.2,87.8,34.5z"/>
	<path class="st0" d="M71.5,47.7l-6.8,5c-0.4,0.3-0.5,0.8-0.2,1.2c0.2,0.2,0.4,0.3,0.7,0.3c0.2,0,0.4-0.1,0.5-0.2l6.8-5
		c0.4-0.3,0.5-0.8,0.2-1.2C72.4,47.5,71.9,47.4,71.5,47.7z"/>
	<path class="st0" d="M43.9,48.1c0.2,0,0.3-0.1,0.5-0.2l16.9-12.1c0.4-0.3,0.5-0.8,0.2-1.2s-0.8-0.5-1.2-0.2L43.4,46.5
		c-0.4,0.3-0.5,0.8-0.2,1.2C43.3,48,43.6,48.1,43.9,48.1z"/>
	<path class="st0" d="M65.9,32.5l4.6-3.3c0.4-0.3,0.5-0.8,0.2-1.2c-0.3-0.4-0.8-0.5-1.2-0.2l-4.6,3.3c-0.4,0.3-0.5,0.8-0.2,1.2
		c0.2,0.2,0.4,0.4,0.7,0.4C65.6,32.7,65.7,32.6,65.9,32.5z"/>
</g>
<path class="st1" d="M64.8,138.4c-0.4,0-0.7-0.2-0.8-0.6L60.3,125c-0.1-0.5,0.1-0.9,0.6-1.1c0.5-0.1,0.9,0.1,1.1,0.6l3.7,12.8
	c0.1,0.5-0.1,0.9-0.6,1.1C65,138.4,64.9,138.4,64.8,138.4z"/>
<g>
	<path class="st1" d="M92.8,54.1H78.4V40.2c0-0.5-0.4-0.9-0.8-0.9h-6.7c-0.5,0-0.8,0.4-0.8,0.9s0.4,0.9,0.8,0.9h5.8v59H23.2V52.5
		h11.6c0.5,0,0.9-0.4,0.9-0.9V41.1h10.2c0.5,0,0.9-0.4,0.9-0.9s-0.4-0.9-0.9-0.9H34.8c-0.1,0-0.2,0-0.3,0.1c0,0-0.1,0-0.1,0.1
		c0,0-0.1,0-0.1,0.1L21.8,50.9c-0.2,0.2-0.3,0.4-0.3,0.6v2.6H7.6c-3.5,0-6.3,2.8-6.3,6.3v58.8c0,3.5,2.8,6.3,6.3,6.3h28.9l-3,11.1
		h-9.4c-0.5,0-0.9,0.4-0.9,0.8s0.4,0.8,0.9,0.8h10c0,0,0,0,0,0c0,0,0,0,0,0h40.1c0.5,0,0.8-0.4,0.8-0.8s-0.4-0.8-0.8-0.8h-39l3-11.1
		h54.5c3.5,0,6.3-2.8,6.3-6.3V60.4C99.1,56.9,96.3,54.1,92.8,54.1z M24.5,50.8l9.5-8.6v8.6H24.5z M7.6,55.8h13.9v44.3H14
		c-0.5,0-0.9,0.4-0.9,0.8s0.4,0.8,0.9,0.8h70.1c0.5,0,0.8-0.4,0.8-0.8s-0.4-0.8-0.8-0.8h-5.6V55.8h14.4c2.5,0,4.6,2.1,4.6,4.6v48.1
		H3V60.4C3,57.9,5.1,55.8,7.6,55.8z M92.8,123.9H7.6c-2.5,0-4.6-2.1-4.6-4.6v-9.1h94.4v9.1C97.4,121.8,95.3,123.9,92.8,123.9z"/>
	<path class="st1" d="M70.1,61.4H31.9c-0.5,0-0.9,0.4-0.9,0.9s0.4,0.9,0.9,0.9h38.2c0.5,0,0.8-0.4,0.8-0.9S70.6,61.4,70.1,61.4z"/>
	<path class="st1" d="M70.1,67.2H31.9c-0.5,0-0.9,0.4-0.9,0.9s0.4,0.9,0.9,0.9h38.2c0.5,0,0.8-0.4,0.8-0.9S70.6,67.2,70.1,67.2z"/>
	<path class="st1" d="M70.1,80.6H31.9c-0.5,0-0.9,0.4-0.9,0.8s0.4,0.8,0.9,0.8h38.2c0.5,0,0.8-0.4,0.8-0.8S70.6,80.6,70.1,80.6z"/>
	<path class="st1" d="M70.1,86.3H31.9c-0.5,0-0.9,0.4-0.9,0.8s0.4,0.8,0.9,0.8h38.2c0.5,0,0.8-0.4,0.8-0.8S70.6,86.3,70.1,86.3z"/>
</g>
</svg>
