<?xml version="1.0" encoding="utf-8"?>
<!-- Generator: Adobe Illustrator 21.0.0, SVG Export Plug-In . SVG Version: 6.00 Build 0)  -->
<svg version="1.1" id="Слой_1" xmlns="http://www.w3.org/2000/svg" xmlns:xlink="http://www.w3.org/1999/xlink" x="0px" y="0px"
	 viewBox="0 0 134 81" style="enable-background:new 0 0 134 81;" xml:space="preserve">
<style type="text/css">
	.st0{fill:#9B7B53;}
	.st1{fill:#272425;}
</style>
<path class="st0" d="M66.2,31.7l-8-8c-0.1-0.1-0.3-0.2-0.5-0.2c-0.2,0-0.4,0.1-0.5,0.2L8.9,72.1c-0.1,0.1-0.2,0.3-0.2,0.5
	s0.1,0.4,0.2,0.5l8,8c0.1,0.1,0.3,0.2,0.5,0.2c0.2,0,0.4-0.1,0.5-0.2l11-11c0,0,0,0,0,0c0,0,0,0,0,0L55.9,43c0,0,0,0,0,0
	c0,0,0,0,0,0l5.4-5.4c0,0,0,0,0,0s0,0,0,0l4.8-4.8C66.5,32.5,66.5,32,66.2,31.7z M60.9,36.1L58,33.2c-0.3-0.3-0.7-0.3-1,0
	c-0.3,0.3-0.3,0.7,0,1l2.9,2.9l-4.4,4.4l-2.9-2.9c-0.3-0.3-0.7-0.3-1,0c-0.3,0.3-0.3,0.7,0,1l2.9,2.9L50,46.9L47.1,44
	c-0.3-0.3-0.7-0.3-1,0c-0.3,0.3-0.3,0.7,0,1l2.9,2.9l-4.4,4.4l-2.9-2.9c-0.3-0.3-0.7-0.3-1,0c-0.3,0.3-0.3,0.7,0,1l2.9,2.9l-4.4,4.4
	l-2.9-2.9c-0.3-0.3-0.7-0.3-1,0c-0.3,0.3-0.3,0.7,0,1l2.9,2.9l-4.4,4.4l-2.9-2.9c-0.3-0.3-0.7-0.3-1,0c-0.3,0.3-0.3,0.7,0,1l2.9,2.9
	l-4.4,4.4l-2.9-2.9c-0.3-0.3-0.7-0.3-1,0c-0.3,0.3-0.3,0.7,0,1l2.9,2.9L22.9,74L20,71.1c-0.3-0.3-0.7-0.3-1,0c-0.3,0.3-0.3,0.7,0,1
	l2.9,2.9l-4.6,4.6l-6.9-6.9l47.3-47.3l6.9,6.9L60.9,36.1z"/>
<path class="st0" d="M63.1,47.1c0-0.4-0.3-0.6-0.7-0.7l-3.8-0.2c-0.2,0-0.4,0.1-0.5,0.2l-2,2c0,0,0,0,0,0s0,0,0,0l-1.9,1.9
	c0,0,0,0,0,0c0,0,0,0,0,0L31,73.4c0,0,0,0,0,0c0,0,0,0,0,0L29.4,75c-0.1,0.1-0.2,0.3-0.2,0.4L28.7,80c0,0.2,0.1,0.4,0.2,0.6
	c0.1,0.1,0.3,0.2,0.5,0.2c0,0,0.1,0,0.1,0l4.6-0.5c0.2,0,0.3-0.1,0.4-0.2L58.5,56l0.1,0.1c0.3,0.3,0.4,0.5,0.4,0.6
	c0,0.1-0.1,0.3-0.6,0.9l-7.8,7.8c-0.6,0.6-0.9,1.2-0.9,1.8c0,0.8,0.5,1.3,0.9,1.7l0.5-0.5l0.4-0.6c-0.2-0.2-0.5-0.5-0.5-0.7
	c0-0.2,0.2-0.5,0.5-0.8l7.8-7.8c1.3-1.3,1.4-2.3,0.2-3.5L59.5,55l3.6-3.6c0.1-0.1,0.2-0.3,0.2-0.5L63.1,47.1z M33.6,78.9l-3.4,0.4
	l0.4-3.4l0.9-0.9l3.1,3.1L33.6,78.9z M35.6,77l-3.1-3.1l22.1-22.1l3,3.1L35.6,77z M55.6,50.8l0.9-0.9l3.1,3.1l-1,1L55.6,50.8z
	 M60.6,52l-3.1-3.1l1.3-1.3l2.9,0.2l0.2,2.9L60.6,52z"/>
<path class="st0" d="M43.6,26.5c-0.2-0.2-0.4-0.2-0.6-0.2l-4.8,0.9c0,0-0.1,0-0.1,0c0,0,0,0-0.1,0c-0.1,0-0.1,0.1-0.2,0.1
	c0,0,0,0,0,0c0,0,0,0,0,0L12,53.2c0,0,0,0,0,0s0,0,0,0L10.2,55c0,0,0,0,0,0s0,0,0,0L8.2,57C8.1,57.2,8,57.4,8,57.6l0.5,3.3
	c0,0.3,0.3,0.5,0.6,0.6l3.3,0.5c0,0,0.1,0,0.1,0c0.2,0,0.4-0.1,0.5-0.2l29.6-29.6c0.1-0.1,0.2-0.2,0.2-0.4l0.9-4.8
	C43.8,26.9,43.8,26.7,43.6,26.5z M41.7,30.3l-2-2l2.4-0.5L41.7,30.3z M16.4,56.6l-1.1-1.1l24.2-24.2c0.3-0.3,0.3-0.7,0-1
	c-0.3-0.3-0.7-0.3-1,0L14.3,54.6l-0.8-0.8l24.8-24.8l2.9,2.9L16.4,56.6z M14.5,58.4l-2.9-2.9l0.8-0.8l2.9,2.9L14.5,58.4z M12.4,60.6
	l-2.5-0.4l-0.4-2.5l1.2-1.2l2.9,2.9L12.4,60.6z"/>
<g>
	<path class="st1" d="M105.1,2.2c-0.1-0.1-0.2-0.1-0.3-0.2c-4.1-1.9-8-2.1-8.1-2.1c-0.2,0-0.4,0.1-0.5,0.2c-0.1,0.1-0.2,0.3-0.2,0.5
		v14.8H20.9c-0.4,0-0.7,0.3-0.7,0.7v21.6c0,0.4,0.3,0.7,0.7,0.7s0.7-0.3,0.7-0.7V16.9h74.2v31.4c0,0.4,0.3,0.7,0.7,0.7
		c4.9,0,8.8,1.4,11.4,4c2.9,3,3.7,6.8,3.8,8.6c0,7.5-5.4,13-12.8,13H48.8c-0.4,0-0.7,0.3-0.7,0.7s0.3,0.7,0.7,0.7H99
		c7.8,0,13.6-5.4,14.2-13.1c0.1-0.1,0.1-0.2,0.1-0.4c0,0,0,0,0-0.1V15.4C113.3,8.1,109.2,4.3,105.1,2.2z M97.3,47.6V1.4
		c1.3,0.1,3.9,0.5,6.6,1.7v17.5c0,0.4,0.3,0.7,0.7,0.7s0.7-0.3,0.7-0.7V3.9c3.5,1.9,6.6,5.4,6.6,11.5v40.9c-0.6-1.4-1.5-2.9-2.9-4.2
		C106.2,49.3,102.3,47.7,97.3,47.6z"/>
	<path class="st1" d="M104.6,26.3c-0.4,0-0.7,0.3-0.7,0.7v6.9c0,0.4,0.3,0.7,0.7,0.7s0.7-0.3,0.7-0.7V27
		C105.3,26.6,105,26.3,104.6,26.3z"/>
	<path class="st1" d="M66.4,52.6c0,0.4,0.3,0.7,0.7,0.7h6.3v3.8c0,0.4,0.3,0.7,0.7,0.7s0.7-0.3,0.7-0.7v-3.8h11.4
		c0.4,0,0.7-0.3,0.7-0.7s-0.3-0.7-0.7-0.7h-6.5v-7.7c0-0.4-0.3-0.7-0.7-0.7s-0.7,0.3-0.7,0.7v7.7H67.1
		C66.7,51.9,66.4,52.2,66.4,52.6z"/>
	<path class="st1" d="M61.3,68.5c0,0.4,0.3,0.7,0.7,0.7h36c0.4,0,0.7-0.3,0.7-0.7V52.6c0-0.4-0.3-0.7-0.7-0.7h-7
		c-0.4,0-0.7,0.3-0.7,0.7s0.3,0.7,0.7,0.7h6.3v14.5H74.8v-4.4c0-0.4-0.3-0.7-0.7-0.7s-0.7,0.3-0.7,0.7v4.4H62
		C61.6,67.8,61.3,68.1,61.3,68.5z"/>
	<path class="st1" d="M88.7,23.9h-18c-0.4,0-0.7,0.3-0.7,0.7s0.3,0.7,0.7,0.7h18c0.4,0,0.7-0.3,0.7-0.7S89.1,23.9,88.7,23.9z"/>
	<path class="st1" d="M88.7,28.6H71.2c-0.4,0-0.7,0.3-0.7,0.7s0.3,0.7,0.7,0.7h17.6c0.4,0,0.7-0.3,0.7-0.7S89.1,28.6,88.7,28.6z"/>
	<path class="st1" d="M88.7,33.2H71.2c-0.4,0-0.7,0.3-0.7,0.7s0.3,0.7,0.7,0.7h17.6c0.4,0,0.7-0.3,0.7-0.7S89.1,33.2,88.7,33.2z"/>
	<path class="st1" d="M88.7,37.1H71.2c-0.4,0-0.7,0.3-0.7,0.7s0.3,0.7,0.7,0.7h17.6c0.4,0,0.7-0.3,0.7-0.7S89.1,37.1,88.7,37.1z"/>
</g>
<g>
	<g>
		<path class="st1" d="M8.3,30.4c-0.2,0-0.4-0.1-0.5-0.2l-2.5-2.5c-0.3-0.3-0.3-0.7,0-1c0.3-0.3,0.7-0.3,1,0l2.5,2.5
			c0.3,0.3,0.3,0.7,0,1C8.6,30.4,8.5,30.4,8.3,30.4z"/>
		<path class="st1" d="M3.5,25.7c-0.2,0-0.4-0.1-0.5-0.2l-2.5-2.5c-0.3-0.3-0.3-0.7,0-1c0.3-0.3,0.7-0.3,1,0L4,24.5
			c0.3,0.3,0.3,0.7,0,1C3.9,25.6,3.7,25.7,3.5,25.7z"/>
	</g>
	<g>
		<path class="st1" d="M1,30.4c-0.2,0-0.4-0.1-0.5-0.2c-0.3-0.3-0.3-0.7,0-1L3,26.7c0.3-0.3,0.7-0.3,1,0c0.3,0.3,0.3,0.7,0,1
			l-2.5,2.5C1.3,30.4,1.1,30.4,1,30.4z"/>
		<path class="st1" d="M5.7,25.7c-0.2,0-0.4-0.1-0.5-0.2c-0.3-0.3-0.3-0.7,0-1l2.5-2.5c0.3-0.3,0.7-0.3,1,0c0.3,0.3,0.3,0.7,0,1
			l-2.5,2.5C6.1,25.6,5.9,25.7,5.7,25.7z"/>
	</g>
</g>
<g>
	<g>
		<path class="st1" d="M51.2,10.2c-0.2,0-0.4-0.1-0.5-0.2l-2.5-2.5c-0.3-0.3-0.3-0.7,0-1c0.3-0.3,0.7-0.3,1,0L51.7,9
			c0.3,0.3,0.3,0.7,0,1C51.5,10.2,51.3,10.2,51.2,10.2z"/>
		<path class="st1" d="M46.4,5.5c-0.2,0-0.4-0.1-0.5-0.2l-2.5-2.5c-0.3-0.3-0.3-0.7,0-1c0.3-0.3,0.7-0.3,1,0l2.5,2.5
			c0.3,0.3,0.3,0.7,0,1C46.7,5.4,46.6,5.5,46.4,5.5z"/>
	</g>
	<g>
		<path class="st1" d="M43.8,10.2c-0.2,0-0.4-0.1-0.5-0.2c-0.3-0.3-0.3-0.7,0-1l2.5-2.5c0.3-0.3,0.7-0.3,1,0c0.3,0.3,0.3,0.7,0,1
			L44.4,10C44.2,10.2,44,10.2,43.8,10.2z"/>
		<path class="st1" d="M48.6,5.5c-0.2,0-0.4-0.1-0.5-0.2c-0.3-0.3-0.3-0.7,0-1l2.5-2.5c0.3-0.3,0.7-0.3,1,0c0.3,0.3,0.3,0.7,0,1
			l-2.5,2.5C49,5.4,48.8,5.5,48.6,5.5z"/>
	</g>
</g>
<g>
	<g>
		<path class="st1" d="M132.5,43.4c-0.2,0-0.4-0.1-0.5-0.2l-2.5-2.5c-0.3-0.3-0.3-0.7,0-1c0.3-0.3,0.7-0.3,1,0l2.5,2.5
			c0.3,0.3,0.3,0.7,0,1C132.9,43.3,132.7,43.4,132.5,43.4z"/>
		<path class="st1" d="M127.7,38.6c-0.2,0-0.4-0.1-0.5-0.2l-2.5-2.5c-0.3-0.3-0.3-0.7,0-1c0.3-0.3,0.7-0.3,1,0l2.5,2.5
			c0.3,0.3,0.3,0.7,0,1C128.1,38.6,127.9,38.6,127.7,38.6z"/>
	</g>
	<g>
		<path class="st1" d="M125.2,43.4c-0.2,0-0.4-0.1-0.5-0.2c-0.3-0.3-0.3-0.7,0-1l2.5-2.5c0.3-0.3,0.7-0.3,1,0c0.3,0.3,0.3,0.7,0,1
			l-2.5,2.5C125.5,43.3,125.4,43.4,125.2,43.4z"/>
		<path class="st1" d="M130,38.6c-0.2,0-0.4-0.1-0.5-0.2c-0.3-0.3-0.3-0.7,0-1l2.5-2.5c0.3-0.3,0.7-0.3,1,0c0.3,0.3,0.3,0.7,0,1
			l-2.5,2.5C130.3,38.6,130.1,38.6,130,38.6z"/>
	</g>
</g>
</svg>
