<?xml version="1.0" encoding="utf-8"?>
<!-- Generator: Adobe Illustrator 21.0.0, SVG Export Plug-In . SVG Version: 6.00 Build 0)  -->
<svg version="1.1" id="Слой_1" xmlns="http://www.w3.org/2000/svg" xmlns:xlink="http://www.w3.org/1999/xlink" x="0px" y="0px"
	 viewBox="0 0 134 81" style="enable-background:new 0 0 134 81;" xml:space="preserve">
<style type="text/css">
	.st0{fill:#9B7B53;}
	.st1{fill:#272425;}
</style>
<g>
	<path class="st0" d="M79.4,17.1v-4.6c0.7-1.1,4.1-6.2,4.1-9.6c0-0.4-0.3-0.8-0.8-0.8h-9.4h-9.4c-0.4,0-0.8,0.3-0.8,0.8
		c0,3.4,3.4,8.5,4.1,9.6v4.6c-4.8,0.8-13.3,8.2-13.3,14.4v19c0,0.4,0.3,0.8,0.8,0.8s0.8-0.3,0.8-0.8v-19c0-5.9,9-13,12.5-13h10.4
		c3.5,0,12.5,7.1,12.5,13v25.6c0,0.4,0.3,0.8,0.8,0.8c0.4,0,0.8-0.3,0.8-0.8V31.5C92.7,25.3,84.3,17.9,79.4,17.1z M69,13.1h3
		c0,0,0,0,0,0c0,0,0,0,0,0h3.2c0,0,0,0,0,0c0,0,0,0,0,0h2.7V17H69V13.1z M64.9,3.6h8.5H82c-0.4,2.9-3.1,7-3.8,8h-1.8l1.8-3.4
		c0.2-0.4,0.1-0.8-0.3-1c-0.4-0.2-0.8-0.1-1,0.3l-2.2,4.1h-2.3l-1.8-4c-0.2-0.4-0.6-0.6-1-0.4c-0.4,0.2-0.6,0.6-0.4,1l1.5,3.4h-2.1
		C68.1,10.6,65.4,6.5,64.9,3.6z"/>
	<path class="st0" d="M76.2,27.9H71c-0.4,0-0.8,0.3-0.8,0.8c0,0,0,0.1,0,0.1c0,0.1,0,0.1,0,0.2v8.3h-4.4c-0.4,0-0.8,0.3-0.8,0.8
		c0,0.4,0.3,0.8,0.8,0.8h4.4v2.4h-4.4c-0.4,0-0.8,0.3-0.8,0.8s0.3,0.8,0.8,0.8h4.4v4.7c0,0.4,0.3,0.8,0.8,0.8c0.4,0,0.8-0.3,0.8-0.8
		v-4.7h6.5c0.4,0,0.8-0.3,0.8-0.8s-0.3-0.8-0.8-0.8h-6.5v-2.4h4.5c3,0,5.4-2.4,5.4-5.4C81.6,30.4,79.2,27.9,76.2,27.9z M76.2,37.3
		h-4.5v-7.8h4.5c2.2,0,3.9,1.8,3.9,3.9C80.1,35.5,78.4,37.3,76.2,37.3z"/>
</g>
<path class="st1" d="M114.3,42.7h-12.2c-0.4,0-0.8-0.3-0.8-0.8c0-0.4,0.3-0.8,0.8-0.8h12.2c0.4,0,0.8,0.3,0.8,0.8
	C115,42.4,114.7,42.7,114.3,42.7z"/>
<path class="st1" d="M122.4,51.3h-8.8c-0.4,0-0.8-0.3-0.8-0.8c0-0.4,0.3-0.8,0.8-0.8h8.8c0.4,0,0.8,0.3,0.8,0.8
	C123.1,50.9,122.8,51.3,122.4,51.3z"/>
<path class="st1" d="M28.6,34.1h-8.8c-0.4,0-0.8-0.3-0.8-0.8c0-0.4,0.3-0.8,0.8-0.8h8.8c0.4,0,0.8,0.3,0.8,0.8
	C29.4,33.8,29,34.1,28.6,34.1z"/>
<path class="st1" d="M124,37.8h-12.2c-0.4,0-0.8-0.3-0.8-0.8s0.3-0.8,0.8-0.8H124c0.4,0,0.8,0.3,0.8,0.8S124.5,37.8,124,37.8z"/>
<path class="st1" d="M21.9,38.9H9.7c-0.4,0-0.8-0.3-0.8-0.8s0.3-0.8,0.8-0.8h12.2c0.4,0,0.8,0.3,0.8,0.8S22.3,38.9,21.9,38.9z"/>
<g>
	<g>
		<path class="st1" d="M41.4,24.1c-0.4,0-0.8-0.3-0.8-0.8v-3.9c0-0.4,0.3-0.8,0.8-0.8c0.4,0,0.8,0.3,0.8,0.8v3.9
			C42.2,23.8,41.9,24.1,41.4,24.1z"/>
		<path class="st1" d="M41.4,16.9c-0.4,0-0.8-0.3-0.8-0.8v-3.8c0-0.4,0.3-0.8,0.8-0.8c0.4,0,0.8,0.3,0.8,0.8v3.8
			C42.2,16.5,41.9,16.9,41.4,16.9z"/>
	</g>
	<g>
		<path class="st1" d="M39.8,18.6h-3.9c-0.4,0-0.8-0.3-0.8-0.8s0.3-0.8,0.8-0.8h3.9c0.4,0,0.8,0.3,0.8,0.8S40.2,18.6,39.8,18.6z"/>
		<path class="st1" d="M47,18.6h-3.8c-0.4,0-0.8-0.3-0.8-0.8s0.3-0.8,0.8-0.8H47c0.4,0,0.8,0.3,0.8,0.8S47.4,18.6,47,18.6z"/>
	</g>
</g>
<g>
	<g>
		<path class="st1" d="M104.6,12.6c-0.4,0-0.8-0.3-0.8-0.8V8c0-0.4,0.3-0.8,0.8-0.8s0.8,0.3,0.8,0.8v3.9
			C105.4,12.2,105,12.6,104.6,12.6z"/>
		<path class="st1" d="M104.6,5.3c-0.4,0-0.8-0.3-0.8-0.8V0.7c0-0.4,0.3-0.8,0.8-0.8s0.8,0.3,0.8,0.8v3.8C105.4,5,105,5.3,104.6,5.3
			z"/>
	</g>
	<g>
		<path class="st1" d="M102.9,7h-3.9c-0.4,0-0.8-0.3-0.8-0.8s0.3-0.8,0.8-0.8h3.9c0.4,0,0.8,0.3,0.8,0.8S103.3,7,102.9,7z"/>
		<path class="st1" d="M110.1,7h-3.8c-0.4,0-0.8-0.3-0.8-0.8s0.3-0.8,0.8-0.8h3.8c0.4,0,0.8,0.3,0.8,0.8S110.6,7,110.1,7z"/>
	</g>
</g>
<path class="st1" d="M100.9,57.4c-0.8-2.1-3.4-2.5-7.7-1c-3.6,1.2-10,3-10.1,3c-0.4,0.1-0.6,0.5-0.5,0.9c0.1,0.4,0.5,0.6,0.9,0.5
	c0.1,0,6.6-1.8,10.2-3c1.9-0.6,5.1-1.4,5.8,0.2c0.7,1.6,0.6,2.5-2.8,4c-0.7,0.3-2.2,1-4.2,2.1c-6,3-22,10.8-24.1,10.6
	C66,74.4,57.1,69.8,53.9,68c-0.1-0.1-0.2-0.1-0.4-0.1h-6.3V50.3c6,0.2,16.1,2.7,17.7,4.4c0.1,0.2,0.3,0.2,0.6,0.2h10.1
	c0.8,0,2.6,0.3,2.6,2.6c0,2-0.7,2.8-2.5,2.8H65.6c-1.1,0-2,0.8-2.6,2.1c-0.4,0.9-0.5,2.1,0.1,2.7c0.1,0.1,0.3,0.2,0.5,0.2
	s0.4-0.1,0.5-0.2c0.3-0.3,0.3-0.7,0-1c-0.1-0.2,0-1,0.5-1.6c0.2-0.2,0.5-0.6,0.9-0.6h10.1c1.8,0,4-0.7,4-4.3c0-3.1-2.2-4.2-4.2-4.2
	h-9.8c-2.7-2.3-13-4.5-18.6-4.7v-1.1c0-0.4-0.3-0.8-0.8-0.8h-4.2v-1.7c0-0.4-0.3-0.8-0.8-0.8H29.2c-0.4,0-0.8,0.3-0.8,0.8
	s0.3,0.8,0.8,0.8h11.5v31.6H29.2c-0.4,0-0.8,0.3-0.8,0.8c0,0.4,0.3,0.8,0.8,0.8h12.2c0.4,0,0.8-0.3,0.8-0.8v-6.8h4.2
	c0.4,0,0.8-0.3,0.8-0.8v-1.4h6.2c1.8,1,11.9,6.4,14.8,6.6c0.1,0,0.1,0,0.2,0c2.4,0,11.2-4.1,24.7-10.7c2-1,3.5-1.7,4.2-2
	C100.5,61.8,102.1,60.5,100.9,57.4z M45.7,70.1h-3.5V48.4h3.5V70.1z"/>
</svg>
