<?xml version="1.0" encoding="utf-8"?>
<!-- Generator: Adobe Illustrator 21.0.0, SVG Export Plug-In . SVG Version: 6.00 Build 0)  -->
<svg version="1.1" id="Слой_1" xmlns="http://www.w3.org/2000/svg" xmlns:xlink="http://www.w3.org/1999/xlink" x="0px" y="0px"
	 viewBox="0 0 134 84" style="enable-background:new 0 0 134 84;" xml:space="preserve">
<style type="text/css">
	.st0{fill:#9B7B53;}
	.st1{fill:#272425;}
</style>
<path class="st0" d="M67.6,1.7l-0.5,33.8c0,0,0,0,0,0.1l0,0L66.9,53h-1.7L63,1.7H51.7v81.7h24.8V1.7H67.6z M75.2,52.6
	c-4.9,7.1-5.1,25.7-5,29.5h-5.1c9.5-21.5,9.8-73.2,9.8-79h0.4V52.6z M68.9,3.1h2C71,6.4,71.1,21,68.5,31.2L68.9,3.1z M68.2,54.3
	l0.3-18.5c4-10.1,3.9-28.7,3.8-32.7h1.3c0,5.8-0.3,58.1-9.9,79h-5.4c0.8-3.1,3.4-14.9,2.5-25.9c-0.7-8.3,1.2-14.1,2.5-17l0.6,15.2
	H68.2z M53.1,48.7V36.2c5.4-10.2,5.1-29.5,5-33.1h2.5C60.7,7.3,61.3,33.7,53.1,48.7z M56.7,3.1c0.1,3,0.3,19.5-3.6,29.8V3.1H56.7z
	 M53.1,51.3c7.8-12,8.9-32.7,8.9-42.9l1.2,28.1c-0.9,1.4-4.8,8.2-3.8,19.8c1,11.2-1.9,23.3-2.5,25.8h-3.8V51.3z M71.5,82.1
	c0-3.3,0.2-18.9,3.7-26.7v26.7H71.5z"/>
<path class="st1" d="M26.9,52.7H15.7c-0.4,0-0.7-0.3-0.7-0.7c0-0.4,0.3-0.7,0.7-0.7h11.2c0.4,0,0.7,0.3,0.7,0.7
	C27.6,52.4,27.3,52.7,26.9,52.7z"/>
<path class="st1" d="M18.7,57.4H11c-0.4,0-0.7-0.3-0.7-0.7S10.6,56,11,56h7.7c0.4,0,0.7,0.3,0.7,0.7S19.1,57.4,18.7,57.4z"/>
<g>
	<g>
		<path class="st1" d="M19.6,29.3c-0.4,0-0.7-0.3-0.7-0.7v-3.6c0-0.4,0.3-0.7,0.7-0.7s0.7,0.3,0.7,0.7v3.6
			C20.3,29,20,29.3,19.6,29.3z"/>
		<path class="st1" d="M19.6,22.6c-0.4,0-0.7-0.3-0.7-0.7v-3.5c0-0.4,0.3-0.7,0.7-0.7s0.7,0.3,0.7,0.7v3.5
			C20.3,22.3,20,22.6,19.6,22.6z"/>
	</g>
	<g>
		<path class="st1" d="M18,24.2h-3.6c-0.4,0-0.7-0.3-0.7-0.7c0-0.4,0.3-0.7,0.7-0.7H18c0.4,0,0.7,0.3,0.7,0.7
			C18.7,23.9,18.4,24.2,18,24.2z"/>
		<path class="st1" d="M24.7,24.2h-3.5c-0.4,0-0.7-0.3-0.7-0.7c0-0.4,0.3-0.7,0.7-0.7h3.5c0.4,0,0.7,0.3,0.7,0.7
			C25.4,23.9,25.1,24.2,24.7,24.2z"/>
	</g>
</g>
<g>
	<g>
		<path class="st1" d="M103.5,84.4c-0.4,0-0.7-0.3-0.7-0.7v-3.6c0-0.4,0.3-0.7,0.7-0.7s0.7,0.3,0.7,0.7v3.6
			C104.2,84.1,103.9,84.4,103.5,84.4z"/>
		<path class="st1" d="M103.5,77.7c-0.4,0-0.7-0.3-0.7-0.7v-3.5c0-0.4,0.3-0.7,0.7-0.7s0.7,0.3,0.7,0.7V77
			C104.2,77.4,103.9,77.7,103.5,77.7z"/>
	</g>
	<g>
		<path class="st1" d="M101.9,79.3h-3.6c-0.4,0-0.7-0.3-0.7-0.7s0.3-0.7,0.7-0.7h3.6c0.4,0,0.7,0.3,0.7,0.7S102.3,79.3,101.9,79.3z"
			/>
		<path class="st1" d="M108.6,79.3h-3.5c-0.4,0-0.7-0.3-0.7-0.7s0.3-0.7,0.7-0.7h3.5c0.4,0,0.7,0.3,0.7,0.7S109,79.3,108.6,79.3z"/>
	</g>
</g>
<g>
	<path class="st1" d="M39.4,14.5c-0.8,0-1.5,0.7-1.5,1.5s0.7,1.5,1.5,1.5s1.5-0.7,1.5-1.5S40.2,14.5,39.4,14.5z M39.2,16
		c0-0.1,0.1-0.2,0.2-0.2c0.1,0,0.2,0.1,0.2,0.2C39.6,16.3,39.2,16.3,39.2,16z"/>
	<path class="st1" d="M39.2,74c0.8,0,1.5-0.7,1.5-1.5c0-0.8-0.7-1.5-1.5-1.5c-0.8,0-1.5,0.7-1.5,1.5C37.7,73.3,38.4,74,39.2,74z
		 M39.2,72.3c0.1,0,0.2,0.1,0.2,0.2c0,0.2-0.4,0.2-0.4,0C39,72.3,39.1,72.3,39.2,72.3z"/>
	<path class="st1" d="M84.5,74.2c0.8,0,1.5-0.7,1.5-1.5c0-0.8-0.7-1.5-1.5-1.5c-0.8,0-1.5,0.7-1.5,1.5C83,73.5,83.7,74.2,84.5,74.2z
		 M84.5,72.5c0.1,0,0.2,0.1,0.2,0.2c0,0.2-0.4,0.2-0.4,0C84.3,72.6,84.4,72.5,84.5,72.5z"/>
	<path class="st1" d="M84.7,15c-0.8,0-1.5,0.7-1.5,1.5c0,0.8,0.7,1.5,1.5,1.5s1.5-0.7,1.5-1.5C86.3,15.7,85.6,15,84.7,15z
		 M84.5,16.6c0-0.1,0.1-0.2,0.2-0.2c0.1,0,0.2,0.1,0.2,0.2C84.9,16.8,84.5,16.8,84.5,16.6z"/>
	<polygon class="st1" points="37.7,21.5 37.7,69.2 39.1,69.2 39.1,63.4 40.1,63.4 40.1,62.1 39.1,62.1 39.1,54.7 40.1,54.7 
		40.1,53.4 39.1,53.4 39.1,46 40.1,46 40.1,44.7 39.1,44.7 39.1,37.3 40.1,37.3 40.1,36 39.1,36 39.1,28.6 40.1,28.6 40.1,27.2 
		39.1,27.2 39.1,21.5 	"/>
	<polygon class="st1" points="85.9,69 85.9,21.3 84.6,21.3 84.6,27.1 83.5,27.1 83.5,28.4 84.6,28.4 84.6,35.8 83.5,35.8 83.5,37.1 
		84.6,37.1 84.6,44.5 83.5,44.5 83.5,45.8 84.6,45.8 84.6,53.2 83.5,53.2 83.5,54.5 84.6,54.5 84.6,61.9 83.5,61.9 83.5,63.2 
		84.6,63.2 84.6,69 	"/>
	<path class="st1" d="M92.3,38.6h11c1.8,0,3.3-1.5,3.3-3.3v-8.6c0-1.8-1.5-3.3-3.3-3.3h-11c-1.4,0-2.7,1-3.1,2.3V12H78.9v1.3h9v61.9
		h-9v1.3h10.3V36.4C89.6,37.7,90.8,38.6,92.3,38.6z M90.4,26.8c0-1.1,0.9-2,1.9-2h11c1.1,0,1.9,0.9,1.9,2v8.6c0,1.1-0.9,2-1.9,2h-11
		c-1.1,0-1.9-0.9-1.9-2V26.8z"/>
	<rect x="91.9" y="33.8" class="st1" width="12.1" height="1.3"/>
	<rect x="91.9" y="30.4" class="st1" width="12.1" height="1.3"/>
	<rect x="91.9" y="27" class="st1" width="12.1" height="1.3"/>
	<path class="st1" d="M110.3,26.8h-3.1v8.6h3.1V26.8z M109,34h-0.4v-5.9h0.4V34z"/>
	<path class="st1" d="M109.8,54.1V35.6h-1.3v18.6c-2.5,0.4-4.4,2.5-4.4,5.1c0,2.9,2.3,5.2,5.2,5.2c2.9,0,5.2-2.3,5.2-5.2
		C114.4,56.6,112.4,54.4,109.8,54.1z M109.3,63.1c-2.1,0-3.8-1.7-3.8-3.8c0-2.1,1.7-3.8,3.8-3.8c2.1,0,3.8,1.7,3.8,3.8
		C113.1,61.4,111.4,63.1,109.3,63.1z"/>
	<path class="st1" d="M109.3,57.2c-1.1,0-2,0.9-2,2c0,1.1,0.9,2,2,2s2-0.9,2-2C111.3,58.1,110.4,57.2,109.3,57.2z M109.3,59.9
		c-0.4,0-0.7-0.3-0.7-0.7c0-0.4,0.3-0.7,0.7-0.7c0.4,0,0.7,0.3,0.7,0.7C110,59.6,109.7,59.9,109.3,59.9z"/>
	<path class="st1" d="M102.6,60.1c0-2.3-1.9-4.2-4.2-4.2c-2.3,0-4.2,1.9-4.2,4.2c0,2.3,1.9,4.2,4.2,4.2
		C100.7,64.3,102.6,62.4,102.6,60.1z M98.4,63c-1.6,0-2.9-1.3-2.9-2.9c0-1.6,1.3-2.9,2.9-2.9c1.6,0,2.9,1.3,2.9,2.9
		C101.3,61.7,100,63,98.4,63z"/>
	<path class="st1" d="M98.4,58.3c-1,0-1.7,0.8-1.7,1.7s0.8,1.7,1.7,1.7s1.7-0.8,1.7-1.7S99.4,58.3,98.4,58.3z M98.4,60.5
		c-0.2,0-0.4-0.2-0.4-0.4c0-0.2,0.2-0.4,0.4-0.4s0.4,0.2,0.4,0.4C98.8,60.3,98.6,60.5,98.4,60.5z"/>
	<path class="st1" d="M98.4,52c2.3,0,4.2-1.9,4.2-4.2s-1.9-4.2-4.2-4.2c-0.2,0-0.3,0-0.5,0l0-0.1L89.7,42l-0.2,1.3l6.4,1.2
		c-1,0.8-1.7,2-1.7,3.3c0,1.3,0.6,2.4,1.5,3.2l-6.2,1.1l0.2,1.3l8.1-1.5C98,52,98.2,52,98.4,52z M98.4,44.9c1.6,0,2.9,1.3,2.9,2.9
		c0,1.6-1.3,2.9-2.9,2.9s-2.9-1.3-2.9-2.9C95.5,46.2,96.8,44.9,98.4,44.9z"/>
	<path class="st1" d="M98.4,49.6c1,0,1.7-0.8,1.7-1.7s-0.8-1.7-1.7-1.7s-1.7,0.8-1.7,1.7S97.5,49.6,98.4,49.6z M98.4,47.4
		c0.2,0,0.4,0.2,0.4,0.4c0,0.2-0.2,0.4-0.4,0.4S98,48.1,98,47.8C98,47.6,98.2,47.4,98.4,47.4z"/>
	<rect x="98.2" y="52.8" class="st1" width="1.3" height="2.7"/>
	<rect x="101.2" y="64" class="st1" width="4.5" height="1.3"/>
	<path class="st1" d="M96.3,16.1h7.7c0.4,0,0.7-0.3,0.7-0.7c0-0.4-0.3-0.7-0.7-0.7h-7.7c-0.4,0-0.7,0.3-0.7,0.7
		C95.6,15.8,96,16.1,96.3,16.1z"/>
	<polygon class="st1" points="33,76.5 49.5,76.5 49.5,75.2 34.4,75.2 34.4,13.3 49.5,13.3 49.5,12 33,12 	"/>
</g>
</svg>
