<?xml version="1.0" encoding="utf-8"?>
<!-- Generator: Adobe Illustrator 21.0.0, SVG Export Plug-In . SVG Version: 6.00 Build 0)  -->
<svg version="1.1" id="Слой_1" xmlns="http://www.w3.org/2000/svg" xmlns:xlink="http://www.w3.org/1999/xlink" x="0px" y="0px"
	 viewBox="0 0 156 84" style="enable-background:new 0 0 156 84;" xml:space="preserve">
<style type="text/css">
	.st0{fill:#272425;}
	.st1{fill:#9B7B53;}
</style>
<path class="st0" d="M20.1,33.5H8.2c-0.4,0-0.7-0.3-0.7-0.7S7.8,32,8.2,32h11.9c0.4,0,0.7,0.3,0.7,0.7S20.5,33.5,20.1,33.5z"/>
<path class="st0" d="M20.4,44.8H8.5c-0.4,0-0.7-0.3-0.7-0.7s0.3-0.7,0.7-0.7h11.9c0.4,0,0.7,0.3,0.7,0.7S20.8,44.8,20.4,44.8z"/>
<path class="st0" d="M11.1,38.3H3c-0.4,0-0.7-0.3-0.7-0.7c0-0.4,0.3-0.7,0.7-0.7h8.2c0.4,0,0.7,0.3,0.7,0.7
	C11.9,37.9,11.6,38.3,11.1,38.3z"/>
<path class="st0" d="M142.4,25c-1.9,0-3.5-1.6-3.5-3.5s1.6-3.5,3.5-3.5c1.9,0,3.5,1.6,3.5,3.5S144.3,25,142.4,25z M142.4,19.5
	c-1.1,0-2,0.9-2,2c0,1.1,0.9,2,2,2s2-0.9,2-2C144.4,20.4,143.5,19.5,142.4,19.5z"/>
<path class="st0" d="M3,59.1c-1.9,0-3.5-1.6-3.5-3.5c0-1.9,1.6-3.5,3.5-3.5s3.5,1.6,3.5,3.5C6.4,57.6,4.9,59.1,3,59.1z M3,53.7
	c-1.1,0-2,0.9-2,2c0,1.1,0.9,2,2,2s2-0.9,2-2C5,54.6,4.1,53.7,3,53.7z"/>
<g>
	<path class="st0" d="M134,56.8c-5.2,0-9.4,4.2-9.4,9.4c0,5.2,4.2,9.4,9.4,9.4c5.2,0,9.4-4.2,9.4-9.4C143.5,61,139.2,56.8,134,56.8z
		 M134,74.1c-4.4,0-7.9-3.6-7.9-7.9c0-4.4,3.6-7.9,7.9-7.9c4.4,0,7.9,3.6,7.9,7.9C142,70.6,138.4,74.1,134,74.1z"/>
	<path class="st0" d="M134,60.3c-3.3,0-5.9,2.7-5.9,5.9c0,3.3,2.7,5.9,5.9,5.9c3.3,0,5.9-2.7,5.9-5.9C140,62.9,137.3,60.3,134,60.3z
		 M134,70.6c-2.5,0-4.4-2-4.4-4.4c0-2.5,2-4.4,4.4-4.4c2.4,0,4.4,2,4.4,4.4C138.5,68.6,136.5,70.6,134,70.6z"/>
	<path class="st0" d="M128.1,37.9c-0.4-0.1-0.8,0.1-0.9,0.5c-0.1,0.4,0.1,0.8,0.5,0.9l17.1,4.3c0.1,0,0.1,0,0.2,0
		c0.3,0,0.6-0.2,0.7-0.6c0.1-0.4-0.1-0.8-0.5-0.9L128.1,37.9z"/>
	<path class="st0" d="M99.3,39.6v20.9c0,0.4,0.3,0.7,0.7,0.7c0.4,0,0.7-0.3,0.7-0.7V39.6c0-0.4-0.3-0.7-0.7-0.7
		C99.7,38.8,99.3,39.2,99.3,39.6z"/>
	<path class="st0" d="M110.9,42.1c0.4,0,0.7-0.3,0.7-0.7s-0.3-0.7-0.7-0.7h-6c-0.4,0-0.7,0.3-0.7,0.7s0.3,0.7,0.7,0.7H110.9z"/>
	<path class="st0" d="M47.1,54c-6.5,0-11.7,5.3-11.7,11.8c0,6.5,5.3,11.7,11.7,11.7c6.5,0,11.8-5.3,11.8-11.7
		C58.8,59.2,53.6,54,47.1,54z M47.1,76c-5.7,0-10.3-4.6-10.3-10.3c0-5.7,4.6-10.3,10.3-10.3c5.7,0,10.3,4.6,10.3,10.3
		C57.3,71.4,52.7,76,47.1,76z"/>
	<path class="st0" d="M47.1,58.4c-4,0-7.3,3.3-7.3,7.3c0,4,3.3,7.3,7.3,7.3s7.3-3.3,7.3-7.3C54.4,61.7,51.1,58.4,47.1,58.4z
		 M47.1,71.5c-3.2,0-5.8-2.6-5.8-5.8c0-3.2,2.6-5.8,5.8-5.8c3.2,0,5.8,2.6,5.8,5.8C52.9,68.9,50.3,71.5,47.1,71.5z"/>
	<path class="st0" d="M88.5,55.7H64.9c-0.4,0-0.7,0.3-0.7,0.7v13.8c0,0.4,0.3,0.7,0.7,0.7h23.6c0.4,0,0.7-0.3,0.7-0.7V56.4
		C89.2,56,88.9,55.7,88.5,55.7z M87.7,69.5H65.6V57.2h22.1V69.5z"/>
	<path class="st0" d="M32.2,54.7c-0.4,0-0.7,0.3-0.7,0.7v11.9c0,0.4,0.3,0.7,0.7,0.7s0.7-0.3,0.7-0.7V55.4
		C32.9,55,32.6,54.7,32.2,54.7z"/>
	<path class="st0" d="M156.3,56.7c0-0.1,0-0.2,0-0.2v-2.5c0-0.4-0.3-0.7-0.7-0.7h-7.6c-0.4,0-0.7,0.3-0.7,0.7v5.4
		c0,0.4,0.3,0.7,0.7,0.7h7.6c0.4,0,0.7-0.3,0.7-0.7v-2.4C156.3,56.8,156.3,56.8,156.3,56.7z M154.8,54.7v1.3h-6.1v-1.3H154.8z
		 M148.7,58.6v-1.2h6.1v1.2H148.7z"/>
	<path class="st0" d="M102.7,59.9c0,0.4,0.3,0.7,0.7,0.7h11.9c0.2,0,0.4-0.1,0.6-0.3c0.1,0.1,0.2,0.2,0.3,0.2c0.1,0,0.1,0,0.2,0
		c0.3,0,0.6-0.2,0.7-0.5l6.6-21.6c0.1-0.4-0.1-0.8-0.5-0.9c-0.4-0.1-0.8,0.1-0.9,0.5l-6.5,21.3c-0.1-0.1-0.3-0.2-0.5-0.2h-11.9
		C103,59.1,102.7,59.5,102.7,59.9z"/>
	<path class="st0" d="M72.3,64.1h6.5c0.4,0,0.7-0.3,0.7-0.7c0-0.4-0.3-0.7-0.7-0.7h-6.5c-0.4,0-0.7,0.3-0.7,0.7
		C71.6,63.8,71.9,64.1,72.3,64.1z"/>
	<path class="st0" d="M109.1,21.1c-0.3-0.3-0.8-0.3-1.1,0l-5.2,5.2c-0.3,0.3-0.3,0.8,0,1.1c0.1,0.1,0.3,0.2,0.5,0.2
		c0.2,0,0.4-0.1,0.5-0.2l5.2-5.2C109.4,21.9,109.4,21.4,109.1,21.1z"/>
	<path class="st0" d="M110.9,24.8c-0.3-0.3-0.8-0.3-1.1,0l-3,3c-0.3,0.3-0.3,0.8,0,1.1c0.1,0.1,0.3,0.2,0.5,0.2
		c0.2,0,0.4-0.1,0.5-0.2l3-3C111.2,25.6,111.2,25.1,110.9,24.8z"/>
	<path class="st0" d="M89,52.3V11.7c0-0.4-0.3-0.7-0.7-0.7h-62c-0.4,0-0.7,0.3-0.7,0.7v40.6c0,0.4,0.3,0.7,0.7,0.7h62
		C88.7,53,89,52.7,89,52.3z M87.5,51.5H27V12.4h60.5V51.5z"/>
	<path class="st0" d="M152.3,62.2l0.4,3.7l-6.1,0c0-0.3,0-0.6,0-0.9c0-6.9-5.6-12.6-12.6-12.6c-6.9,0-12.6,5.6-12.6,12.6
		c0,0.2,0,0.5,0,0.7l-26.6-0.3l-0.1-52.7h14.4l2.4,3.7H99.4c-0.4,0-0.7,0.3-0.7,0.7v15.7c0,0.4,0.3,0.7,0.7,0.7H123
		c0.1,0,0.2,0,0.3-0.1l26.6,7.6l1.2,10.5h1.5l-1.3-11.2c0-0.3-0.2-0.5-0.5-0.6l-27.6-7.9l-12.9-20.4c-0.1-0.2-0.4-0.3-0.6-0.3H94.1
		c-0.2,0-0.4,0.1-0.5,0.2c-0.1,0.1-0.2,0.3-0.2,0.5L93.4,66c0,0.4,0.3,0.7,0.7,0.7l28.2,0.3c0,0,0,0,0,0c0,0,0,0,0,0
		c0.4,0,0.7-0.3,0.7-0.7c0-0.1,0-0.2-0.1-0.3c0-0.4-0.1-0.8-0.1-1.2c0-6.1,5-11.1,11.1-11.1c6.1,0,11.1,5,11.1,11.1
		c0,0.5,0,0.9-0.1,1.5c0,0.2,0,0.4,0.2,0.6c0.1,0.2,0.3,0.3,0.6,0.3l7.8,0.1c0,0,0,0,0,0c0.2,0,0.4-0.1,0.6-0.2
		c0.1-0.2,0.2-0.4,0.2-0.6l-0.5-4.3H152.3z M100.2,17.8h11.4c0.3,0,0.5-0.2,0.7-0.4l6.1,9.6l-6.7,4.9c0,0-0.1,0.1-0.1,0.1h-11.4
		V17.8z M121.5,32.1H114l5.1-3.8L121.5,32.1z"/>
</g>
<g>
	<path class="st1" d="M82.8,26H32.3c-0.4,0-0.7,0.3-0.7,0.7v4.4c0,0.4,0.3,0.7,0.7,0.7h2v1.1c0,0.4,0.3,0.7,0.7,0.7h1.2v17.1
		c0,0.4,0.3,0.7,0.7,0.7h2.3c0.4,0,0.7-0.3,0.7-0.7V33.7h35.7v17.1c0,0.4,0.3,0.7,0.7,0.7H79c0.4,0,0.7-0.3,0.7-0.7V33.7h1.4
		c0.4,0,0.7-0.3,0.7-0.7v-1.1h0.9c0.4,0,0.7-0.3,0.7-0.7v-4.4C83.5,26.4,83.2,26,82.8,26z M38.7,50.1h-0.9V33.7h0.9V50.1z
		 M78.2,50.1h-0.9V33.7h0.9V50.1z M82,30.4h-6.3c-0.4,0-0.7,0.3-0.7,0.7s0.3,0.7,0.7,0.7h4.7v0.3H35.8v-0.3h36.8
		c0.4,0,0.7-0.3,0.7-0.7s-0.3-0.7-0.7-0.7H33.1v-2.9h49V30.4z"/>
	<path class="st1" d="M74,36.1H42.2c-0.4,0-0.7,0.3-0.7,0.7v12.9c0,0.4,0.3,0.7,0.7,0.7c0.4,0,0.7-0.3,0.7-0.7v-2.5l15.5-2.5l14.8,2
		v3c0,0.4,0.3,0.7,0.7,0.7c0.4,0,0.7-0.3,0.7-0.7V36.9C74.7,36.5,74.4,36.1,74,36.1z M42.9,40.8h30.3v0.1l-14.8,2.4l-15.5-2.1V40.8z
		 M73.2,37.6v1.7H42.9v-1.7H73.2z M42.9,45.8v-3.1l10.4,1.4L42.9,45.8z M63.5,44l9.7-1.6v2.8L63.5,44z"/>
</g>
</svg>
