<?xml version="1.0" encoding="utf-8"?>
<!-- Generator: Adobe Illustrator 21.0.0, SVG Export Plug-In . SVG Version: 6.00 Build 0)  -->
<svg version="1.1" id="Слой_1" xmlns="http://www.w3.org/2000/svg" xmlns:xlink="http://www.w3.org/1999/xlink" x="0px" y="0px"
	 viewBox="0 0 180 110" style="enable-background:new 0 0 180 110;" xml:space="preserve">
<style type="text/css">
	.st0{fill:#272425;}
	.st1{fill:#9B7B53;}
</style>
<path class="st0" d="M140.1,9.4c-1-1.1-2.3-1.7-4-1.7h-65c-0.5,0-0.8,0.4-0.8,0.8V13c0,0.5,0.4,0.8,0.8,0.8S72,13.4,72,13V9.4h60.5
	c-1.4,1.7-2.2,4.5-2.2,8.3v58.8c0,8.7-1.7,10.5-4.3,10.5c-2.2,0-3.4-0.8-4.1-2.5c-0.6-1.7-0.6-3.9-0.6-6.2v-47c0-5-0.4-9.5-5.4-9.5
	H84.5c-0.5,0-0.8,0.4-0.8,0.8s0.4,0.8,0.8,0.8h26.3c-0.2,0.2-0.3,0.3-0.5,0.5c-2.7,2.9-2.3,7.5-2.3,7.7c0,0,0,61.9,0,64.6
	c0,1.3,0,3.1-0.5,4.6c-0.5,1.4-1.3,2.1-2.7,2.2c-0.9-0.5-5.3-3.4-5.3-11.8c0-0.5-0.4-0.8-0.8-0.8H48.2V31.7c0-3,1-8.2,7.8-8.2
	c0.5,0,0.8-0.4,0.8-0.8s-0.4-0.8-0.8-0.8c-8.8,0-9.5,7.5-9.5,9.9v58.8h-8.9c-0.5,0-0.8,0.4-0.8,0.8c0,5.8,0.6,13.5,6.2,13.5h61.7
	c1.5,0,3.5-0.6,4.5-3.4c0.6-1.7,0.6-3.7,0.6-5.1c0-2.7,0-64.6,0-64.7c0,0-0.3-4.1,1.8-6.4c1-1.1,2.4-1.6,4.2-1.6
	c2.9,0,3.8,1.8,3.8,7.8v47c0,2.4,0,4.8,0.7,6.8c0.9,2.4,2.8,3.6,5.7,3.6c5,0,6-4.9,6-12.2V20.9h8.9c0.4,0,0.8-0.3,0.8-0.7
	C142.4,14.9,141.9,11.3,140.1,9.4z M43,103.1c-3,0-4.4-3.5-4.5-10.9h59.4c0.2,5.9,2.4,9.2,4.2,10.9H43z M140.1,19.2H132v-1.5
	c0-5.2,1.5-8.3,4.1-8.3c1.2,0,2.1,0.4,2.8,1.1C140.2,12,140.6,14.9,140.1,19.2z"/>
<path class="st1" d="M101.2,72.7H78.9c-0.5,0-0.8-0.4-0.8-0.8s0.4-0.8,0.8-0.8h22.3c0.5,0,0.8,0.4,0.8,0.8S101.6,72.7,101.2,72.7z"
	/>
<path class="st1" d="M99.8,40.1H88c-0.5,0-0.8-0.4-0.8-0.8s0.4-0.8,0.8-0.8h11.8c0.5,0,0.8,0.4,0.8,0.8S100.3,40.1,99.8,40.1z"/>
<path class="st1" d="M99.8,44.4H88c-0.5,0-0.8-0.4-0.8-0.8s0.4-0.8,0.8-0.8h11.8c0.5,0,0.8,0.4,0.8,0.8S100.3,44.4,99.8,44.4z"/>
<path class="st1" d="M102.3,78.7H84.5c-0.5,0-0.8-0.4-0.8-0.8s0.4-0.8,0.8-0.8h17.7c0.5,0,0.8,0.4,0.8,0.8S102.7,78.7,102.3,78.7z"
	/>
<path class="st0" d="M126,88.7h-17.1c-0.5,0-0.8-0.4-0.8-0.8s0.4-0.8,0.8-0.8H126c0.5,0,0.8,0.4,0.8,0.8S126.4,88.7,126,88.7z"/>
<g>
	<path class="st1" d="M70.7,23.9c-3.3,0-6,2.7-6,6s2.7,6,6,6s6-2.7,6-6S74,23.9,70.7,23.9z M70.7,34.2c-2.4,0-4.3-1.9-4.3-4.3
		s1.9-4.3,4.3-4.3s4.3,1.9,4.3,4.3S73.1,34.2,70.7,34.2z"/>
	<path class="st1" d="M83.6,26.5c-0.3-0.2-0.7-0.5-0.9-0.7c0-0.1-0.1-0.2-0.2-0.3c-0.2-0.2,0-1,0.2-1.6c0.4-1.4,0.9-3.2-0.6-4.7
		c-1.4-1.4-3.2-1-4.7-0.8c-0.4,0.1-0.8,0.2-1.1,0.2c-0.1-0.1-0.2-0.1-0.4-0.1c-0.3,0-0.7-0.7-1-1.3c-0.7-1.2-1.6-2.9-3.7-2.9
		c-2,0-3,1.5-3.8,2.8c-0.2,0.3-0.5,0.7-0.7,0.9c-0.1,0-0.2,0.1-0.3,0.2c-0.2,0.2-1,0-1.6-0.2c-1.4-0.4-3.2-0.9-4.7,0.6
		c-1.4,1.4-1,3.2-0.8,4.7c0.1,0.4,0.2,0.8,0.2,1.1c-0.1,0.1-0.1,0.2-0.1,0.4c0,0.3-0.7,0.7-1.3,1c-1.2,0.7-2.9,1.6-2.9,3.7
		c0,2,1.5,3,2.8,3.8c0.3,0.2,0.7,0.5,0.9,0.7c0,0.1,0.1,0.2,0.2,0.3c0.2,0.2,0,1-0.2,1.6c-0.4,1.4-0.9,3.2,0.6,4.7
		c0.8,0.8,1.7,1,2.6,1c0.7,0,1.4-0.1,2.1-0.3c0.4-0.1,0.8-0.2,1.1-0.2c0.1,0.1,0.2,0.1,0.4,0.1c0.3,0,0.7,0.7,1,1.3
		c0.7,1.2,1.6,2.9,3.7,2.9c2,0,3-1.5,3.8-2.8c0.2-0.3,0.5-0.7,0.7-0.9c0.1,0,0.2-0.1,0.3-0.2c0.2-0.2,1,0,1.6,0.2
		c0.7,0.2,1.5,0.4,2.3,0.4c0.8,0,1.7-0.2,2.4-1c1.4-1.4,1-3.2,0.8-4.7c-0.1-0.4-0.2-0.8-0.2-1.1c0.1-0.1,0.1-0.2,0.1-0.4
		c0-0.3,0.7-0.7,1.3-1c1.2-0.7,2.9-1.6,2.9-3.7C86.3,28.4,84.8,27.4,83.6,26.5z M82.6,32.6c-0.3,0.2-0.6,0.4-0.9,0.6
		c-0.2,0-0.5,0-0.7,0.2c-0.9,0.9-0.7,2.3-0.4,3.5c0.3,1.4,0.4,2.4-0.3,3.1c-0.7,0.7-1.6,0.5-3,0.1c-0.3-0.1-0.7-0.2-1.1-0.3
		c-0.2-0.2-0.4-0.3-0.6-0.3c-1.3,0-2.1,1.2-2.8,2.2c-0.8,1.2-1.4,2-2.4,2c-1,0-1.5-0.8-2.2-2c-0.2-0.3-0.4-0.6-0.6-0.9
		c0-0.2,0-0.5-0.2-0.7c-0.9-0.9-2.3-0.7-3.5-0.4c-1.4,0.3-2.4,0.4-3.1-0.3c-0.7-0.7-0.5-1.6-0.1-3c0.1-0.3,0.2-0.7,0.3-1.1
		c0.2-0.2,0.3-0.4,0.3-0.6c0-1.3-1.2-2.1-2.2-2.8c-1.2-0.8-2-1.4-2-2.4c0-1,0.8-1.5,2-2.2c0.3-0.2,0.6-0.4,0.9-0.6c0,0,0.1,0,0.1,0
		c0.2,0,0.4-0.1,0.6-0.2c0.9-0.9,0.7-2.3,0.4-3.5c-0.3-1.4-0.4-2.4,0.3-3.1c0.7-0.7,1.6-0.5,3-0.1c0.3,0.1,0.7,0.2,1.1,0.3
		c0.2,0.2,0.4,0.3,0.6,0.3c1.3,0,2.1-1.2,2.8-2.2c0.8-1.2,1.4-2,2.4-2c1,0,1.5,0.8,2.2,2c0.2,0.3,0.4,0.6,0.6,0.9
		c0,0.2,0,0.5,0.2,0.7c0.9,1,2.3,0.7,3.5,0.4c1.4-0.3,2.4-0.4,3.1,0.3c0.7,0.7,0.5,1.6,0.1,3c-0.1,0.3-0.2,0.7-0.3,1.1
		c-0.2,0.2-0.3,0.4-0.3,0.6c0,1.3,1.2,2.1,2.2,2.8c1.2,0.8,2,1.4,2,2.4C84.6,31.4,83.9,31.9,82.6,32.6z"/>
	<path class="st1" d="M75.5,44.5c-0.5,0-0.8,0.4-0.8,0.8v13.5l-5.2-4.4c-0.3-0.3-0.7-0.3-1.1,0l-5.6,4.1V44c0-0.5-0.4-0.8-0.8-0.8
		s-0.8,0.4-0.8,0.8v16.3c0,0.3,0.2,0.6,0.5,0.8c0.3,0.1,0.6,0.1,0.9-0.1l6.4-4.7l6.1,5.2c0.2,0.1,0.4,0.2,0.6,0.2
		c0.1,0,0.2,0,0.4-0.1c0.3-0.1,0.5-0.4,0.5-0.8V45.4C76.3,44.9,75.9,44.5,75.5,44.5z"/>
	<path class="st1" d="M80.4,43.8c-0.5,0-0.8,0.4-0.8,0.8v13.5c0,0.5,0.4,0.8,0.8,0.8s0.8-0.4,0.8-0.8V44.7
		C81.2,44.2,80.8,43.8,80.4,43.8z"/>
</g>
<path class="st1" d="M55.2,84.1c-0.2,0-0.4-0.1-0.6-0.2c-0.4-0.3-0.4-0.8-0.1-1.2c8.4-9.9,11.1-11,11.5-11.1
	c0.3-0.1,0.7,0.1,0.9,0.4c0.2,0.3,0.2,0.7,0,1c-1.1,1.5-2.3,3.2-3,4.4c2-1.1,3.2-1.7,4.1-1.2c0.5,0.3,0.8,0.9,0.7,1.7
	c0,0.2,0,0.4,0,0.6c0,0.1,0,0.3,0,0.4c0.3-0.1,0.7-0.3,1.3-0.6c0.9-0.5,1.7-1.2,2.4-1.8c0.9-0.8,1.7-1.6,2.8-1.5
	c0.6,0.1,1.2,0.4,1.7,1.1c1.9,2.3,2.1,4.3,2.1,4.4c0,0.5-0.3,0.9-0.8,0.9c-0.5,0-0.9-0.3-0.9-0.8c0,0-0.2-1.6-1.7-3.5
	c-0.2-0.3-0.4-0.4-0.5-0.4c-0.3,0-0.9,0.5-1.5,1c-0.7,0.6-1.6,1.4-2.7,2c-1.6,0.9-2.5,1.2-3.2,0.8C67,80,67,79.2,67.1,78.4
	c0-0.2,0-0.4,0-0.6c0,0,0-0.1,0-0.1c-0.6,0.2-1.9,0.9-3,1.6l-0.4,0.2c-0.8,0.5-1.5,0.5-1.9,0c-0.3-0.3-0.6-0.7,0.6-2.8
	c-1.6,1.6-3.7,3.8-6.5,7.1C55.7,84,55.5,84.1,55.2,84.1z"/>
<path class="st0" d="M40.4,52h-3c-0.3-1.1-1.2-2-2.3-2.4v-3c0-0.5-0.4-0.8-0.8-0.8s-0.8,0.4-0.8,0.8v3c-1.1,0.3-2,1.2-2.3,2.4h-3
	c-0.5,0-0.8,0.4-0.8,0.8s0.4,0.8,0.8,0.8h3c0.3,1.1,1.2,2,2.3,2.3v3c0,0.5,0.4,0.8,0.8,0.8s0.8-0.4,0.8-0.8v-3
	c1.1-0.3,2-1.2,2.3-2.3h3c0.5,0,0.8-0.4,0.8-0.8S40.9,52,40.4,52z M34.2,54.5c-0.9,0-1.6-0.7-1.6-1.6c0-0.9,0.7-1.6,1.6-1.6
	c0.9,0,1.6,0.7,1.6,1.5c0,0,0,0.1,0,0.1c0,0,0,0,0,0.1C35.8,53.8,35.1,54.5,34.2,54.5z"/>
<path class="st0" d="M155.9,71h-3c-0.3-1.1-1.2-2-2.3-2.4v-3c0-0.5-0.4-0.8-0.8-0.8s-0.8,0.4-0.8,0.8v3c-1.1,0.3-2,1.2-2.3,2.4h-3
	c-0.5,0-0.8,0.4-0.8,0.8s0.4,0.8,0.8,0.8h3c0.3,1.1,1.2,2,2.3,2.3v3c0,0.5,0.4,0.8,0.8,0.8s0.8-0.4,0.8-0.8v-3
	c1.1-0.3,2-1.2,2.3-2.3h3c0.5,0,0.8-0.4,0.8-0.8S156.4,71,155.9,71z M149.8,73.4c-0.9,0-1.6-0.7-1.6-1.6s0.7-1.6,1.6-1.6
	c0.9,0,1.6,0.7,1.6,1.5c0,0,0,0.1,0,0.1c0,0,0,0,0,0.1C151.3,72.8,150.6,73.4,149.8,73.4z"/>
<path class="st0" d="M29.9,20.3h-9.7c-0.5,0-0.8-0.4-0.8-0.8s0.4-0.8,0.8-0.8h9.7c0.5,0,0.8,0.4,0.8,0.8S30.4,20.3,29.9,20.3z"/>
<path class="st0" d="M36.7,25.6h-9.7c-0.5,0-0.8-0.4-0.8-0.8s0.4-0.8,0.8-0.8h9.7c0.5,0,0.8,0.4,0.8,0.8S37.1,25.6,36.7,25.6z"/>
<path class="st0" d="M146,93.8h-9.7c-0.5,0-0.8-0.4-0.8-0.8s0.4-0.8,0.8-0.8h9.7c0.5,0,0.8,0.4,0.8,0.8S146.5,93.8,146,93.8z"/>
<path class="st0" d="M155.4,98.5h-13.7c-0.5,0-0.8-0.4-0.8-0.8s0.4-0.8,0.8-0.8h13.7c0.5,0,0.8,0.4,0.8,0.8S155.9,98.5,155.4,98.5z"
	/>
</svg>
