<?xml version="1.0" encoding="utf-8"?>
<!-- Generator: Adobe Illustrator 21.0.0, SVG Export Plug-In . SVG Version: 6.00 Build 0)  -->
<svg version="1.1" id="Слой_1" xmlns="http://www.w3.org/2000/svg" xmlns:xlink="http://www.w3.org/1999/xlink" x="0px" y="0px"
	 viewBox="0 0 180 110" style="enable-background:new 0 0 180 110;" xml:space="preserve">
<style type="text/css">
	.st0{fill:#9B7B53;}
	.st1{fill:#272425;}
</style>
<g>
	<path class="st0" d="M73.2,90.6H59.4v-4.5h13.8V90.6z M61.1,88.9h10.4v-1.1H61.1V88.9z"/>
	<path class="st0" d="M73.2,96.6H59.4v-4.5h13.8V96.6z M61.1,94.9h10.4v-1.1H61.1V94.9z"/>
	<path class="st0" d="M73.2,78.5H59.4V74h13.8V78.5z M61.1,76.8h10.4v-1.1H61.1V76.8z"/>
	<path class="st0" d="M73.2,84.5H59.4v-4.5h13.8V84.5z M61.1,82.9h10.4v-1.1H61.1V82.9z"/>
</g>
<g>
	<path class="st0" d="M87.8,90.6H74v-4.5h13.8V90.6z M75.7,88.9h10.4v-1.1H75.7V88.9z"/>
	<path class="st0" d="M87.8,96.6H74v-4.5h13.8V96.6z M75.7,94.9h10.4v-1.1H75.7V94.9z"/>
	<path class="st0" d="M87.8,84.5H74v-4.5h13.8V84.5z M75.7,82.9h10.4v-1.1H75.7V82.9z"/>
</g>
<g>
	<g>
		<path class="st0" d="M106.3,86.3c-3.1,0-5.6-2.9-5.6-6.4c0-3.5,2.5-6.4,5.6-6.4c3.1,0,5.6,2.9,5.6,6.4
			C111.9,83.5,109.4,86.3,106.3,86.3z M106.3,75.3c-2.2,0-4,2.1-4,4.7s1.8,4.7,4,4.7c2.2,0,4-2.1,4-4.7S108.5,75.3,106.3,75.3z"/>
		<path class="st0" d="M106.3,83c-1.5,0-2.8-1.4-2.8-3.1c0-1.7,1.2-3.1,2.8-3.1c1.5,0,2.8,1.4,2.8,3.1C109.1,81.6,107.8,83,106.3,83
			z M106.3,78.6c-0.6,0-1.1,0.6-1.1,1.4c0,0.8,0.5,1.4,1.1,1.4c0.6,0,1.1-0.6,1.1-1.4C107.4,79.2,106.9,78.6,106.3,78.6z"/>
	</g>
	<g>
		<path class="st0" d="M100.5,97.9c-3.1,0-5.6-2.9-5.6-6.4c0-3.5,2.5-6.4,5.6-6.4c3.1,0,5.6,2.9,5.6,6.4
			C106.1,95,103.6,97.9,100.5,97.9z M100.5,86.8c-2.2,0-4,2.1-4,4.7s1.8,4.7,4,4.7c2.2,0,4-2.1,4-4.7S102.6,86.8,100.5,86.8z"/>
		<path class="st0" d="M100.5,94.6c-1.5,0-2.8-1.4-2.8-3.1c0-1.7,1.2-3.1,2.8-3.1c1.5,0,2.8,1.4,2.8,3.1
			C103.2,93.2,102,94.6,100.5,94.6z M100.5,90.1c-0.6,0-1.1,0.6-1.1,1.4c0,0.8,0.5,1.4,1.1,1.4c0.6,0,1.1-0.6,1.1-1.4
			C101.6,90.8,101,90.1,100.5,90.1z"/>
	</g>
	<g>
		<path class="st0" d="M111.6,97.9c-3.1,0-5.6-2.9-5.6-6.4c0-3.5,2.5-6.4,5.6-6.4c3.1,0,5.6,2.9,5.6,6.4
			C117.3,95,114.7,97.9,111.6,97.9z M111.6,86.8c-2.2,0-4,2.1-4,4.7s1.8,4.7,4,4.7c2.2,0,4-2.1,4-4.7S113.8,86.8,111.6,86.8z"/>
		<path class="st0" d="M111.6,94.6c-1.5,0-2.8-1.4-2.8-3.1c0-1.7,1.2-3.1,2.8-3.1c1.5,0,2.8,1.4,2.8,3.1
			C114.4,93.2,113.2,94.6,111.6,94.6z M111.6,90.1c-0.6,0-1.1,0.6-1.1,1.4c0,0.8,0.5,1.4,1.1,1.4c0.6,0,1.1-0.6,1.1-1.4
			C112.7,90.8,112.2,90.1,111.6,90.1z"/>
	</g>
</g>
<rect x="88.3" y="11.2" class="st1" width="1.7" height="11.1"/>
<g>
	<path class="st1" d="M123.2,94.1h19.9v-1.7h-19.9v-4.8h19.9V86h-19.9v-4.8h19.9v-1.7h-19.9v-4.8h19.9V73h-19.9v-4.8h19.9v-1.7
		h-19.9v-4.8h19.9v-1.7h-19.9v-1.7H56.1v1.7H36.7v1.7h19.5v4.8H36.7v1.7h19.5V73H36.7v1.7h19.5v4.8H36.7v1.7h19.5V86H36.7v1.7h19.5
		v4.8H36.7v1.7h19.5V97H28.6v1.7h122.2V97h-27.6V94.1z M57.8,60.1h63.7v37h-1.4V71.4h-1.7V97H93.6V71.4H92V97H57.8V60.1z"/>
	<rect x="37.1" y="47.6" class="st1" width="105.1" height="1.7"/>
	<rect x="37.1" y="54.1" class="st1" width="105.1" height="1.7"/>
	<path class="st1" d="M89.7,10.9l-0.4-0.2L26.2,43.5h127.1L89.7,10.9z M89.7,33.8c-2.4,0-4.3-2.4-4.3-5.4c0-3,1.9-5.4,4.3-5.4
		c2.4,0,4.3,2.4,4.3,5.4C94,31.4,92,33.8,89.7,33.8z M90.3,35.5c3-0.4,5.3-3.4,5.3-7.1c0-3.9-2.7-7.1-6-7.1c-3.3,0-6,3.2-6,7.1
		c0,3.5,2.1,6.4,5,7v6.4H58.2l31.4-27.4L121,41.8H90.3V35.5z M88.4,13.2l-30.9,27V29.1l30.8-16L88.4,13.2z M57.4,41.7l0.1,0.1h-0.1
		V41.7z M91.4,13.7l30.4,15.6v11L91.4,13.7z M131.2,34.2l-7.7,6.2V30.1l22.7,11.7h-21.7l7.7-6.3L131.2,34.2z M55.8,30v10.8l-7.3-6.5
		l-1.1,1.3l7.1,6.3H33L55.8,30z"/>
</g>
<path class="st1" d="M150.8,24.8h-14c-0.5,0-0.9-0.4-0.9-0.9s0.4-0.9,0.9-0.9h14c0.5,0,0.9,0.4,0.9,0.9S151.3,24.8,150.8,24.8z"/>
<path class="st1" d="M165.4,87.7h-14c-0.5,0-0.9-0.4-0.9-0.9s0.4-0.9,0.9-0.9h14c0.5,0,0.9,0.4,0.9,0.9S165.9,87.7,165.4,87.7z"/>
<path class="st1" d="M28.4,56.6h-14c-0.5,0-0.9-0.4-0.9-0.9s0.4-0.9,0.9-0.9h14c0.5,0,0.9,0.4,0.9,0.9S28.8,56.6,28.4,56.6z"/>
<path class="st1" d="M21.4,80.3c-2.2,0-4-1.8-4-4s1.8-4,4-4s4,1.8,4,4S23.6,80.3,21.4,80.3z M21.4,73.9c-1.3,0-2.3,1-2.3,2.3
	s1,2.3,2.3,2.3s2.3-1,2.3-2.3S22.7,73.9,21.4,73.9z"/>
<path class="st1" d="M39.8,22.7c-2.2,0-4-1.8-4-4s1.8-4,4-4s4,1.8,4,4S42.1,22.7,39.8,22.7z M39.8,16.4c-1.3,0-2.3,1-2.3,2.3
	c0,1.3,1,2.3,2.3,2.3s2.3-1,2.3-2.3C42.2,17.4,41.1,16.4,39.8,16.4z"/>
<path class="st1" d="M154.6,71.4c-2.2,0-4-1.8-4-4c0-2.2,1.8-4,4-4s4,1.8,4,4C158.7,69.6,156.9,71.4,154.6,71.4z M154.6,65.1
	c-1.3,0-2.3,1-2.3,2.3c0,1.3,1,2.3,2.3,2.3s2.3-1,2.3-2.3C156.9,66.1,155.9,65.1,154.6,65.1z"/>
</svg>
