<?xml version="1.0" encoding="utf-8"?>
<!-- Generator: Adobe Illustrator 21.0.0, SVG Export Plug-In . SVG Version: 6.00 Build 0)  -->
<svg version="1.1" id="Слой_1" xmlns="http://www.w3.org/2000/svg" xmlns:xlink="http://www.w3.org/1999/xlink" x="0px" y="0px"
	 viewBox="0 0 180 110" style="enable-background:new 0 0 180 110;" xml:space="preserve">
<style type="text/css">
	.st0{fill:#9B7B53;}
	.st1{fill:#272425;}
</style>
<g>
	<path class="st0" d="M57.3,41.2c2.8-0.5,5.5,1.4,6,4.2l1.9-0.3c-0.7-3.9-4.4-6.4-8.2-5.8c-3.2,0.6-5.5,3.2-5.8,6.3
		c-2.5-0.5-5.2-0.1-7.5,1.4c-4.8,3-6.2,9.4-3.1,14.2l1.6-1c-2.5-3.9-1.3-9.1,2.6-11.5c3.9-2.5,9.1-1.3,11.5,2.6l1.6-1
		c-1.2-1.9-2.9-3.2-4.8-4C53.1,43.8,54.8,41.6,57.3,41.2z"/>
	<path class="st0" d="M96.5,75.6c0,2.8-2.3,5.2-5.2,5.2c-1.5,0-2.9-0.7-3.9-1.8L86.7,78L86,79c-1,1.4-2.6,2.3-4.4,2.3
		c-2.3,0-4.4-1.5-5.1-3.8l-0.3-0.8l-0.8,0.2c-0.8,0.1-1.6,0.1-2.4-0.2l-0.8-0.3l-0.4,0.8c-1.5,3-4.4,4.8-7.7,4.8
		c-3.8,0-7.1-2.5-8.2-6.1l-0.3-1.1l-1,0.6c-0.8,0.4-1.7,0.6-2.6,0.5l-0.8-0.1l-0.3,0.7c-0.7,1.9-2.5,3.2-4.5,3.2
		c-1.9,0-3.6-1.1-4.3-2.8l-0.8-1.8l-0.9,1.8c-0.9,1.8-2.6,2.8-4.6,2.8c-2.8,0-5.2-2.3-5.2-5.2c0-0.7,0.2-1.5,0.5-2.2l0.6-1.3l-1.4,0
		c-0.3,0-0.7,0-1-0.1l-0.3,0l-0.3,0.1c-1.2,0.5-2.3,0.4-3.2-0.2l-0.5-0.3l-0.5,0.4c-0.2,0.1-0.4,0.2-0.7,0.2c-0.7,0-1.2-0.5-1.2-1.2
		c0-0.4,0.2-0.8,0.6-1l1-0.5l-0.6-0.9c-1.1-1.5-1.7-3.3-1.7-5.2c0-3.9,2.5-7.3,6.2-8.4L30,53l-1.7-1.1c-1.2-0.8-1.9-2.1-1.9-3.5
		c0-2.1,1.6-3.9,3.7-4.1l0.7-0.1l0.1-0.7c1-4.8,5.3-8.3,10.2-8.3c1.6,0,3.1,0.4,4.6,1.1l0.8,0.4l0.4-0.8c1.9-3.8,7-6.4,12.7-6.4
		c4.2,0,8,1.3,10.6,3.6l1.3-1.4c-2.9-2.6-7.3-4.1-11.9-4.1c-6,0-11.5,2.6-14,6.6c-1.5-0.6-3-0.9-4.6-0.9c-5.6,0-10.5,3.8-11.9,9.2
		c-2.8,0.6-4.8,3-4.8,5.9c0,1.5,0.5,2.8,1.4,3.9c-3.7,1.8-6,5.5-6,9.7c0,2,0.5,3.9,1.6,5.6c-0.5,0.6-0.8,1.3-0.8,2.1
		c0,1.7,1.4,3.1,3.1,3.1c0.4,0,0.9-0.1,1.3-0.3c1.2,0.6,2.5,0.7,3.8,0.3c-0.1,0.5-0.2,1-0.2,1.6c0,3.9,3.2,7.1,7.1,7.1
		c2.1,0,4.1-0.9,5.4-2.5c1.3,1.6,3.2,2.5,5.2,2.5c2.6,0,4.9-1.5,6-3.8c0.7-0.1,1.3-0.1,2-0.3c1.2,2.9,3.6,5.1,6.6,6l-1.4,16.8
		c-1.4-2.2-3.9-3.6-6.7-3.6c-4.4,0-8,3.6-8,8h1.9c0-3.3,2.7-6.1,6.1-6.1c3.4,0,6.1,2.7,6.1,6.1h0.2l0,0.1h9.1l0-0.3h0
		c0-2.3,1.9-4.2,4.2-4.2c2.3,0,4.2,1.9,4.2,4.2h1.9c0-3.4-2.7-6.1-6.1-6.1c-1.8,0-3.5,0.8-4.6,2.1l-1.4-16.8
		c2.8-0.6,5.2-2.3,6.7-4.8c0.6,0.1,1.2,0.2,1.8,0.2c1.2,2.6,3.7,4.4,6.6,4.4c2,0,3.8-0.8,5.2-2.2c1.3,1.1,2.9,1.7,4.5,1.7
		c3.9,0,7.1-3.2,7.1-7.1H96.5z M61.2,102.7L62.8,84h1.8l1.6,18.7H61.2z"/>
</g>
<path d="M160.5,90.7h-16.8c-0.5,0-1-0.4-1-1c0-0.5,0.4-1,1-1h16.8c0.5,0,1,0.4,1,1C161.5,90.3,161,90.7,160.5,90.7z"/>
<path d="M18.8,94.4c-2.6,0-4.7-2.1-4.7-4.7c0-2.6,2.1-4.7,4.7-4.7c2.6,0,4.7,2.1,4.7,4.7C23.5,92.3,21.4,94.4,18.8,94.4z M18.8,86.6
	c-1.7,0-3.2,1.4-3.2,3.2c0,1.7,1.4,3.2,3.2,3.2s3.2-1.4,3.2-3.2C22,88,20.6,86.6,18.8,86.6z"/>
<g>
	<g>
		<rect x="71.6" y="5.2" width="1.9" height="6.2"/>
		<rect x="71.6" y="14.7" width="1.9" height="6.2"/>
	</g>
	<g>
		<rect x="74.2" y="12.1" width="6.2" height="1.9"/>
		<rect x="64.7" y="12.1" width="6.2" height="1.9"/>
	</g>
</g>
<g>
	<path class="st1" d="M138,36c-2.8-1.8-6-2.2-9-1.6c-0.3-3.7-3-6.8-6.8-7.5c-2.4-0.4-4.8,0.3-6.6,1.7c-2.9-2.8-7.4-3.1-10.7-0.6
		c-2.4,1.9-3.5,4.9-3.1,7.7c-4-2.7-9.5-2.7-13.5,0.4c-5.1,3.9-6,11.2-2.1,16.2l1.5-1.2c-3.2-4.2-2.5-10.3,1.8-13.6
		c4.2-3.2,10.3-2.4,13.6,1.8l0.2-0.2c0,0.1,0.1,0.1,0.1,0.2l1.5-1.2c-2.1-2.7-1.6-6.7,1.1-8.8c2.5-1.9,6-1.7,8.2,0.5
		c-0.8,1-1.4,2.3-1.6,3.6l1.9,0.3c0.6-3.4,3.9-5.8,7.3-5.2c3.1,0.5,5.2,3.2,5.2,6.2c-2.3,0.9-4.3,2.5-5.7,4.7l1.6,1
		c1.4-2.2,3.4-3.6,5.7-4.3l0.2,0c0,0,0,0,0-0.1c2.6-0.7,5.6-0.4,8,1.2c4.7,3,6.1,9.2,3.1,13.9l1.6,1C145.2,47,143.6,39.5,138,36z"/>
	<path class="st1" d="M166,53.7c0-5-2.9-9.4-7.3-11.4c1.2-1.3,1.8-3,1.8-4.7c0-3.4-2.4-6.2-5.6-6.9c-1.6-6.3-7.4-10.9-14-10.9
		c-1.9,0-3.7,0.4-5.5,1.1c-2.9-4.8-9.4-7.9-16.5-7.9c-5.2,0-10.1,1.6-13.5,4.4c-1.3-0.5-2.7-0.8-4-0.8c-3.9,0-7.4,2-9.5,5.3
		c-0.7-0.1-1.4-0.2-2.1-0.2c-5.3,0-9.7,3.7-10.9,8.7c-0.7-0.2-1.4-0.3-2.1-0.3c-3.9,0-7,3.2-7,7c0,3.2,2.1,5.9,5,6.7
		c-0.7,1.1-1.2,2.4-1.2,3.8c-0.7,0.1-1.4,0.3-2.1,0.8c0,0-0.1,0-0.1,0c-4.2,0-7.6,3.4-7.6,7.6c0,1.8,0.6,3.5,1.7,4.8
		c-0.2,0.5-0.3,1-0.3,1.5c0,1.9,1.6,3.5,3.5,3.5c0.5,0,1.1-0.1,1.5-0.3c1.1,0.6,2.5,0.8,3.7,0.6c-0.5,1.1-0.8,2.3-0.8,3.6
		c0,4.5,3.7,8.2,8.2,8.2c2,0,3.9-0.7,5.4-2.1c1.6,1.7,3.8,2.7,6.2,2.7c3.4,0,6.4-2,7.8-5.2c0.8,0.1,1.6,0,2.3-0.2
		c1.8,3,4.7,5.1,8,5.8l-1.8,20.6c-1.3-1.7-3.3-2.8-5.6-2.8c-3.7,0-6.8,2.9-7,6.6h-7.5v-2.4h-1.9v2.4h-3.7v-6.6h-1.9v6.6h-39v-8h-1.9
		v8h-5.2v1.9h110.8v-1.9h-2.7v-2.4h-1.9v2.4h-5.5c-0.3-4.8-4.3-8.7-9.3-8.7c-3.4,0-6.4,1.9-8,4.7l-1.8-20.6c3.5-1.1,6.5-3.7,7.9-7.2
		c0.8,0.3,1.7,0.4,2.5,0.4c1.3,2.7,4,4.5,7,4.5c2.5,0,4.8-1.2,6.2-3.1c1.5,2,3.9,3.1,6.4,3.1c4.5,0,8.2-3.7,8.2-8.2
		c0-0.7-0.1-1.4-0.3-2.1c1.7,0.6,3.3,0.5,4.8-0.2c0.5,0.2,1,0.4,1.5,0.4c1.9,0,3.5-1.6,3.5-3.5c0-0.9-0.4-1.8-1-2.4
		C165.3,58.3,166,56,166,53.7z M103.8,98.7c2.7,0,4.9,2.1,5.1,4.7H98.7C98.9,100.8,101.1,98.7,103.8,98.7z M127.1,96.6
		c3.9,0,7,3,7.4,6.8h-14.7C120,99.6,123.2,96.6,127.1,96.6z M111.1,102.1l1.9-22.6h2.4l1.9,22.6H111.1z M162.3,61.4
		c0.5,0.3,0.9,0.8,0.9,1.4c0,0.9-0.7,1.6-1.6,1.6c-0.3,0-0.7-0.1-0.9-0.3l-0.5-0.4l-0.5,0.3c-1.1,0.7-2.4,0.9-4,0.2l-0.3-0.1l-0.3,0
		c-0.4,0.1-0.8,0.1-1.2,0.1l-1.4,0.1l0.6,1.3c0.4,0.9,0.6,1.7,0.6,2.7c0,3.5-2.8,6.3-6.3,6.3c-2.4,0-4.5-1.3-5.6-3.5l-0.9-1.8
		l-0.8,1.8c-1,2.1-3,3.4-5.3,3.4c-2.5,0-4.7-1.6-5.5-3.9l-0.3-0.7l-0.8,0.1c-0.8,0.1-1.6,0-2.4-0.2c2.2-6.9-1.2-14.4-7.9-17.3
		l-0.7,1.8c5.8,2.5,8.7,8.8,6.9,14.7l-0.1,0l-0.3,1.1c-1.3,4.4-5.4,7.4-10,7.4c-4,0-7.6-2.2-9.3-5.8l-0.4-0.8l-0.8,0.3
		c-0.9,0.4-2,0.5-2.9,0.3l-0.8-0.1l-0.3,0.8c-0.9,2.7-3.4,4.6-6.2,4.6c-2.1,0-4.1-1-5.3-2.8L87,73l-0.8,0.9
		c-1.2,1.4-2.9,2.2-4.7,2.2c-3.5,0-6.3-2.8-6.3-6.3c0-2.8,1.8-5.2,4.4-6l1.2-0.5l-0.8-1.1l-0.5-0.4H79c-0.4,0-0.7-0.1-1.1-0.2
		l-0.7-0.2l-0.4,0.7c-1.1,2-4,2.8-6,1.6l-0.5-0.3l-0.5,0.4c-0.3,0.2-0.6,0.3-0.9,0.3c-0.9,0-1.6-0.7-1.6-1.6c0-0.4,0.2-0.8,0.4-1
		l0.5-0.7l-0.6-0.6c-1.1-1.1-1.7-2.5-1.7-4c0-3.1,2.5-5.7,5.8-5.7l0.6,0.1l0.3-0.2c0.4-0.3,1.2-0.7,2-0.5l1.2,0.2l-0.1-1.3
		c0-0.2,0-0.4,0-0.6c0-1.6,0.6-3.1,1.8-4.2l1.6-1.6l-2.3-0.1c-2.8-0.1-4.9-2.3-4.9-5.1c0-2.8,2.3-5.1,5.1-5.1c0.8,0,1.6,0.2,2.4,0.6
		l1.2,0.7l0.1-1.4c0.5-4.7,4.4-8.3,9.2-8.3c0.7,0,1.4,0.1,2.3,0.3l0.7,0.2l0.4-0.7c1.6-3.1,4.7-5,8.2-5c1.3,0,2.6,0.3,3.8,0.8
		l0.6,0.3l0.5-0.4c3.1-2.8,7.7-4.3,12.7-4.3c6.8,0,13,3.1,15.2,7.7l0.4,0.8l0.9-0.4c1.7-0.9,3.6-1.3,5.5-1.3c5.9,0,11.1,4.2,12.3,10
		l0.1,0.7l0.7,0.1c2.6,0.3,4.6,2.5,4.6,5.1c0,1.7-0.9,3.3-2.3,4.2l-1.7,1.1l1.9,0.6c4.5,1.4,7.5,5.5,7.5,10.2c0,2.3-0.7,4.4-2.1,6.3
		l-0.6,0.9L162.3,61.4z"/>
</g>
</svg>
